<svg width="70" height="70" viewBox="0 0 70 70" fill="none" xmlns="http://www.w3.org/2000/svg">
<g id="bathwithwindow 2">
<g id="Vector">
<path d="M63.8 40.9H6.3C3.9 40.9 2 39 2 36.6C2 34.2 3.9 32.3 6.3 32.3H63.8C66.2 32.3 68.1 34.2 68.1 36.6C68.1 38.9 66.2 40.9 63.8 40.9ZM6.3 35.7C5.8 35.7 5.5 36.1 5.5 36.5C5.5 37 5.9 37.3 6.3 37.3H63.8C64.3 37.3 64.6 36.9 64.6 36.5C64.6 36 64.2 35.7 63.8 35.7H6.3Z" fill="#393D46"/>
<path d="M50.9 58H25.9C23 57.9 20.3 57.2 17.8 56C15.3 54.8 13.1 53.1 11.2 50.9C8.5 47.6 7 43.4 6.9 39.1L10.4 39C10.5 42.5 11.7 45.9 13.9 48.7C15.4 50.4 17.2 51.8 19.3 52.9C21.4 53.9 23.6 54.5 26 54.5H51C52.7 54.5 54.3 53.9 55.5 52.9C56.8 51.8 57.6 50.4 57.9 48.7L59.7 38.8L63.1 39.4L61.3 49.3C60.9 51.7 59.6 54 57.7 55.5C55.8 57.2 53.4 58 50.9 58Z" fill="#393D46"/>
<path d="M22.1 55.2L18.4 60.6C18.3 60.8 18.2 61 18.2 61.2C18.2 61.4 18.2 61.7 18.2 61.9C18.3 62.1 18.4 62.3 18.5 62.5C18.6 62.7 18.8 62.8 19 63C19.4 63.2 19.9 63.3 20.3 63.2C20.7 63.1 21.1 62.8 21.4 62.4L25.1 57C25.2 56.8 25.3 56.6 25.4 56.3C25.5 56.1 25.5 55.8 25.4 55.6C25.4 55.4 25.3 55.1 25.1 54.9C25 54.7 24.8 54.5 24.6 54.4C24.4 54.3 24.2 54.2 23.9 54.2C23.7 54.2 23.4 54.2 23.2 54.3C23 54.4 22.8 54.5 22.6 54.7C22.3 54.8 22.2 55 22.1 55.2Z" fill="#393D46"/>
<path d="M47.3 57.2L50.7 62.4C50.9 62.8 51.3 63.1 51.7 63.2C51.9 63.3 52.2 63.3 52.4 63.3C52.6 63.3 52.9 63.2 53.1 63.1C53.5 62.9 53.8 62.5 53.9 62C54 61.6 54 61.1 53.7 60.7C52.6 59 51.5 57.3 50.3 55.5C50.1 55.1 49.7 54.8 49.2 54.7C48.9 54.6 48.5 54.6 48.2 54.7C47.9 54.8 47.6 55 47.4 55.3C47.2 55.6 47.1 55.9 47 56.3C47 56.5 47.1 56.9 47.3 57.2Z" fill="#393D46"/>
<path d="M63.2 32.6H59.7V15.6C59.7 15.2 59.6 14.8 59.5 14.4C59.3 14 59.1 13.7 58.8 13.4C58.5 13.1 58.2 12.9 57.8 12.7C57.4 12.5 57 12.5 56.6 12.5C55.9 12.5 55.2 12.8 54.7 13.4C54.2 13.9 53.9 14.6 53.8 15.4L50.3 15.3C50.4 13.7 51 12.1 52.2 11C53.3 9.89998 54.9 9.19998 56.5 9.09998C57.4 9.09998 58.3 9.29998 59.1 9.59998C59.9 9.89998 60.6 10.4 61.2 11C61.8 11.6 62.3 12.3 62.6 13.1C62.9 13.9 63.1 14.8 63.1 15.6V32.6H63.2Z" fill="#393D46"/>
<path d="M48.5 18.7H55.6C56.1 18.7 56.5 18.5 56.8 18.2C57.1 17.9 57.3 17.4 57.3 17C57.3 16.5 57.1 16.1 56.8 15.8C56.5 15.5 56 15.3 55.6 15.3H48.5C48 15.3 47.6 15.5 47.3 15.8C47 16.1 46.8 16.6 46.8 17C46.8 17.5 47 17.9 47.3 18.2C47.6 18.5 48.1 18.7 48.5 18.7Z" fill="#393D46"/>
</g>
</g>
</svg>
