<svg width="70" height="70" viewBox="0 0 70 70" fill="none" xmlns="http://www.w3.org/2000/svg">
<g id="dressingRoom">
<g id="Vector">
<path d="M49.6801 20.2001C47.9601 19.4101 46.2201 18.6201 44.5201 17.8301C43.3029 17.3829 42.0007 17.2154 40.7101 17.3401H36.8901C36.1931 17.3864 35.5127 17.5735 34.8901 17.8901C34.2501 18.1701 32.4501 19.4701 31.8101 19.7601L32.9801 20.7001L36.6301 21.7001C37.1001 21.7001 37.9401 20.8701 38.4101 20.8701H42.8001C42.8001 20.8701 42.8001 20.8701 42.8601 20.8701C42.8859 20.8609 42.9142 20.8609 42.9401 20.8701C43.2001 21.0101 43.4901 21.1201 43.7401 21.2301L48.0001 23.1901C48.1255 23.2503 48.2459 23.3205 48.3601 23.4001C48.4046 23.4583 48.4549 23.5119 48.5101 23.5601L48.6201 23.7401C48.6201 23.8001 48.8001 24.1001 48.7201 23.8901C48.8871 24.2492 48.9594 24.6451 48.9301 25.0401V27.6401C48.9301 27.7301 48.9301 28.0201 48.9301 28.0401C48.9096 28.1721 48.8795 28.3024 48.8401 28.4301C48.8401 28.4901 48.7801 28.6101 48.7701 28.6501C48.7078 28.7808 48.6377 28.9077 48.5601 29.0301C48.5399 29.058 48.5231 29.0882 48.5101 29.1201C48.4815 29.1373 48.4547 29.1574 48.4301 29.1801L48.2401 29.3401H48.1601L47.9401 29.4101C47.6201 29.4101 47.3001 29.4101 46.9401 29.4101C46.4775 29.4153 46.0354 29.6013 45.7084 29.9284C45.3813 30.2554 45.1953 30.6975 45.1901 31.1601V42.7401H37.8501V46.2401H46.8501C47.3126 46.2349 47.7547 46.0488 48.0817 45.7217C48.4088 45.3947 48.5949 44.9526 48.6001 44.4901V32.8701C49.3804 32.7416 50.1085 32.3949 50.7001 31.8701C51.2557 31.3067 51.6897 30.6352 51.9752 29.8973C52.2607 29.1594 52.3917 28.3707 52.3601 27.5801C52.3601 26.7401 52.3601 25.8901 52.3601 25.0501C52.3943 24.0748 52.163 23.1085 51.691 22.2543C51.219 21.4001 50.524 20.6901 49.6801 20.2001Z" fill="#393D46"/>
<path d="M42.76 20.8501C42.88 20.9301 42.89 20.9301 42.86 20.9001H42.77L42.76 20.8501Z" fill="#393D46"/>
<path d="M39.22 22.54C37.5 21.75 35.79 20.94 34.06 20.17C32.8408 19.7315 31.5398 19.5676 30.25 19.69H27.99C27.48 19.69 26.99 19.69 26.46 19.69C25.7629 19.7284 25.0816 19.9124 24.46 20.23L21.46 21.63C20.6203 21.9436 19.8104 22.3318 19.04 22.79C18.2676 23.3777 17.6551 24.1498 17.2585 25.0356C16.8619 25.9214 16.6939 26.8925 16.77 27.86C16.6078 29.4905 16.8093 31.1367 17.36 32.68C17.6187 33.2472 17.9882 33.757 18.4467 34.1795C18.9052 34.6019 19.4435 34.9285 20.03 35.14C20.7625 35.3382 21.5229 35.4126 22.28 35.36L20.45 33.62V46.83C20.4473 47.0641 20.4912 47.2964 20.5789 47.5135C20.6667 47.7306 20.7966 47.9281 20.9613 48.0945C21.1259 48.261 21.3219 48.3932 21.538 48.4834C21.754 48.5736 21.9858 48.62 22.22 48.62H36.44C36.6746 48.62 36.9069 48.5736 37.1235 48.4836C37.3401 48.3935 37.5367 48.2615 37.7022 48.0951C37.8676 47.9288 37.9985 47.7314 38.0874 47.5143C38.1762 47.2971 38.2213 47.0646 38.22 46.83V33.62L36.47 35.37C37.1585 35.4367 37.8535 35.3658 38.5144 35.1615C39.1754 34.9572 39.7891 34.6236 40.32 34.18C40.8757 33.6172 41.3092 32.9456 41.5931 32.2074C41.8771 31.4691 42.0054 30.6802 41.97 29.89C41.97 29.04 41.97 28.2 41.97 27.35C41.9921 26.374 41.7478 25.4105 41.2632 24.563C40.7787 23.7155 40.0723 23.0161 39.22 22.54C38.817 22.3176 38.3438 22.259 37.8988 22.3763C37.4537 22.4936 37.0709 22.7779 36.83 23.17C36.5985 23.5716 36.5338 24.0479 36.6497 24.4967C36.7656 24.9454 37.053 25.3308 37.45 25.57C37.6038 25.6337 37.7485 25.7178 37.88 25.82C37.69 25.66 37.88 25.82 37.97 25.93C38.04 26.02 38.06 26.04 37.97 25.93C38.0256 25.9993 38.0758 26.0729 38.12 26.15C38.12 26.22 38.3 26.51 38.22 26.31C38.384 26.6663 38.4529 27.0591 38.42 27.45C38.42 28.21 38.42 28.97 38.42 29.73C38.42 29.84 38.42 29.95 38.42 30.05C38.42 30.15 38.42 30.61 38.42 30.4C38.3973 30.5489 38.3638 30.6959 38.32 30.84C38.32 30.93 38.18 31.22 38.32 31C38.25 31.15 38.16 31.3 38.08 31.44C38 31.58 38.21 31.37 37.95 31.59C37.95 31.59 37.59 31.88 37.77 31.76C37.95 31.64 37.6 31.84 37.56 31.86C37.88 31.7 37.49 31.86 37.41 31.86C37.52 31.86 37.72 31.86 37.41 31.86C37.1 31.86 36.77 31.86 36.41 31.86C35.951 31.873 35.515 32.0638 35.1941 32.3922C34.8731 32.7206 34.6924 33.1608 34.69 33.62V46.83L36.44 45.08H22.22L23.97 46.83V33.62C23.9674 33.1558 23.7825 32.7111 23.4551 32.3819C23.1278 32.0527 22.6842 31.8653 22.22 31.86H21.61C21.51 31.86 21.4 31.86 21.3 31.86C20.93 31.86 21.4 31.93 21.12 31.86C21.12 31.86 20.86 31.77 21.04 31.86C21.22 31.95 20.96 31.81 20.92 31.78C20.88 31.75 20.92 31.78 20.92 31.83C20.8386 31.7653 20.7618 31.6951 20.69 31.62C20.69 31.62 20.5 31.42 20.61 31.56C20.72 31.7 20.54 31.44 20.51 31.4L20.39 31.18C20.15 30.76 20.39 31.31 20.33 31.04C20.1974 30.6133 20.1598 30.1628 20.22 29.72V27.44C20.2077 27.2702 20.2077 27.0998 20.22 26.93C20.2525 26.5611 20.3993 26.2115 20.64 25.93C20.5 26.12 20.77 25.81 20.82 25.76C20.65 25.93 21.05 25.63 21.15 25.57C21.84 25.23 22.55 24.93 23.25 24.57L26.08 23.27C26.15 23.27 26.3 23.2 26.35 23.14C25.9 23.23 26.4 23.08 26.35 23.14H26.51C26.99 23.14 27.51 23.14 27.95 23.14H31.62C31.8 23.14 31.99 23.14 32.17 23.14H32.36C32.44 23.14 32.59 23.31 32.3 23.14C32.5929 23.325 32.9006 23.4855 33.22 23.62L34.98 24.43L37.48 25.62C37.885 25.8405 38.3589 25.8981 38.8049 25.781C39.2509 25.6639 39.6355 25.381 39.88 24.99C40.0008 24.7866 40.0796 24.5611 40.1118 24.3268C40.1439 24.0925 40.1288 23.854 40.0673 23.6257C40.0058 23.3973 39.8991 23.1835 39.7535 22.997C39.608 22.8106 39.4266 22.6552 39.22 22.54Z" fill="#393D46"/>
<path fill-rule="evenodd" clip-rule="evenodd" d="M34.6878 21.1932C35.1041 24.6922 32.827 27.897 29.5418 28.1449C26.2239 28.3953 23.1184 25.1759 23.4776 21.3177L26.9626 21.6421C26.7818 23.5839 28.3563 24.7245 29.2784 24.6549C30.2332 24.5828 31.4361 23.4876 31.2124 21.6066L34.6878 21.1932Z" fill="#393D46"/>
<path fill-rule="evenodd" clip-rule="evenodd" d="M27.5701 21.9301V11.3201H31.0701V21.9301H27.5701Z" fill="#393D46"/>
<path d="M15.36 57.6201H4.75C4.28587 57.6201 3.84075 57.8045 3.51256 58.1327C3.18437 58.4609 3 58.906 3 59.3701C3 59.8342 3.18437 60.2794 3.51256 60.6076C3.84075 60.9357 4.28587 61.1201 4.75 61.1201H15.36C15.8241 61.1201 16.2692 60.9357 16.5974 60.6076C16.9256 60.2794 17.11 59.8342 17.11 59.3701C17.11 58.906 16.9256 58.4609 16.5974 58.1327C16.2692 57.8045 15.8241 57.6201 15.36 57.6201Z" fill="#393D46"/>
<path d="M65.1 57.3601H54.49C54.0259 57.3601 53.5807 57.5445 53.2526 57.8727C52.9244 58.2009 52.74 58.646 52.74 59.1101C52.74 59.5742 52.9244 60.0194 53.2526 60.3475C53.5807 60.6757 54.0259 60.8601 54.49 60.8601H65.1C65.5641 60.8601 66.0092 60.6757 66.3374 60.3475C66.6656 60.0194 66.85 59.5742 66.85 59.1101C66.85 58.646 66.6656 58.2009 66.3374 57.8727C66.0092 57.5445 65.5641 57.3601 65.1 57.3601Z" fill="#393D46"/>
<path fill-rule="evenodd" clip-rule="evenodd" d="M38.49 19.5V10.25H41.99V19.5H38.49Z" fill="#393D46"/>
<path fill-rule="evenodd" clip-rule="evenodd" d="M9.84776 9.53766C10.8324 8.55304 12.1677 8 13.5601 8H55.9701C57.3623 8 58.6978 8.55297 59.6823 9.53766C60.6669 10.5222 61.2201 11.8575 61.2201 13.25V59.11H57.7201V13.25C57.7201 12.7859 57.5357 12.3408 57.2075 12.0125C56.8795 11.6845 56.4343 11.5 55.9701 11.5H13.5601C13.0959 11.5 12.6508 11.6844 12.3226 12.0125C11.9945 12.3407 11.8101 12.7858 11.8101 13.25V59.11H8.3101V13.25C8.3101 11.8576 8.86314 10.5223 9.84776 9.53766Z" fill="#393D46"/>
</g>
</g>
</svg>
