<svg width="70" height="70" viewBox="0 0 70 70" fill="none" xmlns="http://www.w3.org/2000/svg">
<g id="highCeiling">
<g id="Vector">
<path d="M12.75 14.5299H52.15C53.97 14.5299 55.8 14.5899 57.62 14.5299H57.69C58.1517 14.5222 58.5924 14.3353 58.9189 14.0088C59.2454 13.6823 59.4323 13.2416 59.44 12.7799C59.4348 12.3174 59.2488 11.8753 58.9217 11.5482C58.5946 11.2211 58.1525 11.0351 57.69 11.0299H18.29C16.47 11.0299 14.64 10.9599 12.82 11.0299H12.75C12.2875 11.0351 11.8454 11.2211 11.5183 11.5482C11.1912 11.8753 11.0052 12.3174 11 12.7799C11.0052 13.2424 11.1912 13.6845 11.5183 14.0116C11.8454 14.3387 12.2875 14.5247 12.75 14.5299Z" fill="#393D46"/>
<path d="M25.43 51.7C25.7332 52.0771 25.8989 52.5462 25.9 53.03C25.9 53.5976 25.6745 54.1419 25.2732 54.5432C24.8719 54.9446 24.3275 55.17 23.76 55.17C23.4803 55.1687 23.2036 55.1123 22.9456 55.0041C22.6877 54.8958 22.4536 54.7378 22.2568 54.5391C22.0599 54.3404 21.9041 54.1048 21.7983 53.8459C21.6925 53.587 21.6387 53.3098 21.64 53.03C21.641 52.5462 21.8068 52.0771 22.11 51.7H20.02L18.64 50.79C18.3334 51.4969 18.1767 52.2596 18.18 53.03C18.18 54.5241 18.7728 55.9572 19.8284 57.0146C20.8839 58.072 22.3159 58.6674 23.81 58.67C25.305 58.6674 26.738 58.0723 27.7952 57.0152C28.8523 55.9581 29.4473 54.525 29.45 53.03C29.4479 52.582 29.3942 52.1358 29.29 51.7H25.43Z" fill="#393D46"/>
<path d="M33.2301 50.04L25.8901 36.9L25.5101 35.44V11.01H22.0101V35.44C22.0098 35.9511 21.879 36.4537 21.6301 36.9L15.2801 48.29L14.2801 50.05C14.1317 50.3167 14.0549 50.6172 14.0569 50.9224C14.059 51.2276 14.1399 51.527 14.2919 51.7917C14.4438 52.0564 14.6617 52.2772 14.9242 52.4329C15.1867 52.5885 15.4849 52.6737 15.7901 52.68H31.6901C31.9992 52.6798 32.3028 52.5986 32.5708 52.4445C32.8388 52.2904 33.0618 52.0689 33.2175 51.8019C33.3733 51.5349 33.4564 51.2317 33.4586 50.9226C33.4608 50.6135 33.382 50.3092 33.2301 50.04ZM18.7901 49.17L23.7901 40.27C25.4501 43.23 27.1167 46.1967 28.7901 49.17H18.7901Z" fill="#393D46"/>
<path d="M49.6401 42.21C49.9433 42.5833 50.1092 43.0492 50.1101 43.53C50.1101 44.0976 49.8847 44.6419 49.4833 45.0432C49.082 45.4446 48.5377 45.67 47.9701 45.67C47.4043 45.6674 46.8625 45.4408 46.4634 45.0397C46.0642 44.6387 45.8401 44.0959 45.8401 43.53C45.841 43.0492 46.0069 42.5833 46.3101 42.21H44.2201L42.8001 41.29C42.4946 41.9972 42.338 42.7597 42.3401 43.53C42.3401 45.0241 42.9329 46.4572 43.9885 47.5146C45.044 48.572 46.476 49.1674 47.9701 49.17C48.7129 49.1727 49.449 49.0288 50.1361 48.7467C50.8232 48.4645 51.448 48.0497 51.9747 47.5258C52.5013 47.002 52.9195 46.3794 53.2053 45.6938C53.491 45.0081 53.6388 44.2729 53.6401 43.53C53.6386 43.0853 53.5849 42.6423 53.4801 42.21H49.6401Z" fill="#393D46"/>
<path d="M50.14 27.41L49.75 25.94V12.29H46.25V25.94C46.2515 26.4545 46.1206 26.9607 45.87 27.41L39.52 38.79L38.52 40.54C38.3723 40.8075 38.2959 41.1084 38.2981 41.4139C38.3004 41.7195 38.3813 42.0192 38.533 42.2844C38.6847 42.5497 38.9021 42.7714 39.1642 42.9282C39.4264 43.0851 39.7246 43.1718 40.03 43.18H55.94C56.2454 43.1718 56.5435 43.0851 56.8057 42.9282C57.0679 42.7714 57.2853 42.5497 57.437 42.2844C57.5887 42.0192 57.6696 41.7195 57.6718 41.4139C57.6741 41.1084 57.5977 40.8075 57.45 40.54L50.14 27.41ZM43.03 39.68C44.69 36.7134 46.3567 33.7434 48.03 30.77L53.03 39.68H43.03Z" fill="#393D46"/>
</g>
</g>
</svg>
