<svg width="70" height="70" viewBox="0 0 70 70" fill="none" xmlns="http://www.w3.org/2000/svg">
<g id="laundry">
<g id="Vector">
<path d="M18.3401 54.85V15.85C18.3451 15.8102 18.3451 15.7699 18.3401 15.73C18.3434 15.6701 18.3434 15.61 18.3401 15.55C18.3401 15.43 18.3401 15.32 18.3401 15.2C18.3401 15.33 18.3401 15.34 18.3401 15.2C18.4637 14.3983 18.8749 13.669 19.4969 13.1482C20.1189 12.6274 20.9091 12.3508 21.7201 12.37C26.8601 12.31 32.0101 12.37 37.1601 12.37H49.2801C49.3401 12.37 49.9701 12.43 49.7001 12.37C49.9748 12.4246 50.2455 12.4981 50.5101 12.59C51.0001 12.75 50.3801 12.51 50.6501 12.65L51.0101 12.84C51.1501 12.93 51.2901 13.02 51.4201 13.12C51.1901 12.94 51.5701 13.28 51.5801 13.28C51.8998 13.5963 52.153 13.9733 52.3247 14.3889C52.4965 14.8045 52.5833 15.2503 52.5801 15.7V53.1C52.5801 53.63 52.5801 54.17 52.5801 54.7V55.11C52.5801 55.2 52.5801 55.28 52.5801 55.37C52.5801 55.21 52.5801 55.23 52.5801 55.43C52.5213 55.7059 52.4411 55.9767 52.3401 56.24C52.4601 55.94 52.2301 56.43 52.2201 56.44L52.0501 56.72C51.7889 57.1022 51.4477 57.4229 51.0501 57.66C50.637 57.9369 50.164 58.1117 49.6701 58.17C49.9401 58.17 49.3101 58.17 49.2501 58.17H36.4501C31.5201 58.17 26.5801 58.25 21.6501 58.17C20.766 58.17 19.918 57.8195 19.2919 57.1953C18.6658 56.5711 18.3127 55.7241 18.3101 54.84C18.3101 52.7 14.9401 52.69 14.9801 54.84C14.993 56.3152 15.4889 57.7456 16.3919 58.9122C17.2949 60.0789 18.5552 60.9176 19.9801 61.3C20.8149 61.4741 21.668 61.5446 22.5201 61.51H48.5801C49.8222 61.557 51.0583 61.3139 52.1901 60.8C53.2998 60.2379 54.2326 59.3802 54.8855 58.3214C55.5385 57.2626 55.8861 56.0439 55.8901 54.8C55.8901 53.43 55.8901 52.05 55.8901 50.68V30.68C55.8901 25.74 55.8901 20.79 55.8901 15.84C55.8954 14.9467 55.7243 14.061 55.3867 13.2339C55.049 12.4068 54.5515 11.6544 53.9226 11.02C53.2937 10.3855 52.5457 9.88132 51.7216 9.53642C50.8975 9.19151 50.0135 9.01263 49.1201 9.01001H21.7201C20.5045 9.01143 19.3118 9.34109 18.2681 9.96418C17.2243 10.5873 16.3682 11.4807 15.7901 12.55C14.8701 14.35 15.0101 16.26 15.0101 18.21V54.85C15.0426 55.2693 15.2321 55.6609 15.5408 55.9466C15.8495 56.2322 16.2545 56.3909 16.6751 56.3909C17.0956 56.3909 17.5007 56.2322 17.8094 55.9466C18.118 55.6609 18.3076 55.2693 18.3401 54.85Z" fill="#393D46"/>
<path fill-rule="evenodd" clip-rule="evenodd" d="M20.9399 41.4801C20.9399 33.5327 27.3826 27.0901 35.3299 27.0901C43.2773 27.0901 49.7199 33.5327 49.7199 41.4801C49.7199 49.4275 43.2773 55.8701 35.3299 55.8701C27.3826 55.8701 20.9399 49.4275 20.9399 41.4801ZM35.3299 30.5901C29.3156 30.5901 24.4399 35.4657 24.4399 41.4801C24.4399 47.4945 29.3156 52.3701 35.3299 52.3701C41.3443 52.3701 46.2199 47.4945 46.2199 41.4801C46.2199 35.4657 41.3443 30.5901 35.3299 30.5901Z" fill="#393D46"/>
<path d="M23.3199 24.9501C25.0699 24.9501 26.8299 24.9501 28.5799 24.9501C29.5949 24.9291 30.5602 24.507 31.2648 23.7761C31.9694 23.0453 32.356 22.0652 32.3399 21.0501V17.7901C32.3666 17.2452 32.3127 16.6993 32.1799 16.1701C31.9927 15.5558 31.6521 14.9993 31.1902 14.5532C30.7283 14.107 30.1603 13.7859 29.5399 13.6201C28.548 13.463 27.5411 13.4227 26.5399 13.5001C25.5399 13.5001 24.5399 13.5001 23.5399 13.5001C23.0382 13.4922 22.5399 13.5831 22.0734 13.7678C21.6069 13.9525 21.1813 14.2272 20.821 14.5764C20.4607 14.9255 20.1727 15.3423 19.9735 15.8027C19.7743 16.2632 19.6677 16.7584 19.6599 17.2601C19.6599 18.3901 19.6599 19.5201 19.6599 20.6501C19.6266 21.386 19.7564 22.1202 20.0399 22.8001C20.3445 23.4376 20.8218 23.977 21.4174 24.357C22.0131 24.737 22.7034 24.9425 23.4099 24.9501C23.874 24.9501 24.3191 24.7657 24.6473 24.4375C24.9755 24.1093 25.1599 23.6642 25.1599 23.2001C25.1599 22.736 24.9755 22.2909 24.6473 21.9627C24.3191 21.6345 23.874 21.4501 23.4099 21.4501C22.9999 21.4501 23.6999 21.5201 23.4099 21.4501H23.3499C23.1599 21.3901 23.1899 21.4501 23.4199 21.5001C23.4199 21.5001 23.2299 21.4001 23.2099 21.3901C22.8999 21.2301 23.3099 21.4401 23.2799 21.4501C23.2499 21.4601 23.1099 21.3101 23.1199 21.2901C23.1299 21.2701 23.3499 21.5701 23.1199 21.2901V21.1701C23.1199 20.9801 23.1199 21.0101 23.1199 21.2701C23.1498 21.0009 23.1498 20.7293 23.1199 20.4601V17.4601C23.1249 17.3768 23.1249 17.2934 23.1199 17.2101C23.1199 16.9501 23.1199 17.1501 23.1199 17.2101C23.1199 17.4701 23.1199 17.0901 23.1199 17.0801C23.1199 17.0701 22.8899 17.4701 23.1199 17.1701L23.1799 17.0701C23.2799 16.9101 23.2599 16.9301 23.1199 17.1301C23.1199 17.1301 23.2999 16.9701 23.2799 16.9701C23.2599 16.9701 22.9599 17.1501 23.2099 17.0301L23.3199 16.9701C23.4599 16.9001 23.4599 16.9001 23.3199 16.9701L23.2199 17.0201C23.2972 16.9907 23.3778 16.9706 23.4599 16.9601C23.4599 16.9601 22.9899 16.9601 23.3699 16.9601H26.1199C26.9399 16.9601 27.7599 16.9601 28.5699 16.9601C28.8599 16.9601 28.4599 16.9601 28.4699 16.9601C28.4799 16.9601 28.7099 16.9601 28.7099 17.0201C28.3899 16.7901 28.7099 17.0801 28.7099 17.0201C28.7799 16.9501 29.0299 17.2501 28.7099 17.0201C28.6399 17.0901 28.8699 17.2001 28.8699 17.1801C28.7399 17.0001 28.7099 16.9601 28.7799 17.0701C28.8499 17.1801 28.8399 17.1701 28.8699 17.2201C29.0599 17.5201 28.8099 17.1301 28.8699 17.1301C28.9299 17.1301 28.8699 17.5701 28.8699 17.2601C28.8699 17.2601 28.8699 17.5101 28.8699 17.6301V21.1801C28.8699 21.2301 28.7699 21.2501 28.8699 21.3101C28.8699 21.0701 28.9199 21.0201 28.8699 21.1501C28.8199 21.2801 28.8699 21.2701 28.8699 21.3301C28.8699 21.3901 29.0499 21.0101 28.8699 21.2401C28.8699 21.3001 28.6199 21.5301 28.8099 21.3601C28.9999 21.1901 28.6899 21.4401 28.7099 21.4401C28.7299 21.4401 29.0999 21.2201 28.7799 21.3801C28.7799 21.3801 28.5999 21.5001 28.5699 21.4901C28.7099 21.4901 28.8499 21.3601 28.6399 21.4401C28.4299 21.5201 28.9599 21.4401 28.6399 21.4401C26.8999 21.3501 25.1399 21.4401 23.3899 21.4401C22.9274 21.4453 22.4853 21.6313 22.1582 21.9584C21.8311 22.2855 21.6451 22.7276 21.6399 23.1901C21.6466 23.6412 21.8234 24.0731 22.1349 24.3994C22.4464 24.7258 22.8696 24.9224 23.3199 24.9501Z" fill="#393D46"/>
<path fill-rule="evenodd" clip-rule="evenodd" d="M28.6838 43.2182C26.3431 42.8442 24.0874 42.0577 22.0216 40.8952L23.7381 37.845C25.4425 38.8041 27.3036 39.4532 29.2349 39.7618C31.4863 40.1186 33.1663 39.8832 34.9353 39.6354L34.9859 39.6283C36.7828 39.3766 38.7596 39.1006 41.1779 39.7258L41.1989 39.7312L41.2197 39.7372C44.1331 40.5678 46.7168 42.2823 48.6142 44.6441L45.8856 46.8361C44.4467 45.045 42.4889 43.7432 40.281 43.109C38.6089 42.681 37.2546 42.8447 35.4714 43.0944C35.4298 43.1003 35.3881 43.1061 35.3462 43.112C33.5721 43.361 31.457 43.6578 28.6859 43.2185L28.6838 43.2182Z" fill="#393D46"/>
<path d="M37.9901 20.97H39.9901C40.2229 20.9815 40.4544 20.9296 40.6601 20.82C40.8763 20.7538 41.0701 20.6292 41.2201 20.46C41.3933 20.3075 41.5213 20.1103 41.5901 19.89C41.7006 19.6847 41.7525 19.4529 41.7401 19.22C41.7366 18.7544 41.5498 18.3089 41.2201 17.98C40.8892 17.6608 40.4498 17.4786 39.9901 17.47H37.9901C37.7541 17.4587 37.5194 17.5105 37.3101 17.62C37.0963 17.6914 36.9038 17.8152 36.7501 17.98C36.5828 18.1357 36.4587 18.3321 36.3901 18.55C36.2805 18.7557 36.2286 18.9872 36.2401 19.22C36.2441 19.6836 36.4267 20.1278 36.7501 20.46C37.084 20.7808 37.5271 20.963 37.9901 20.97Z" fill="#393D46"/>
<path d="M45.42 20.97H47.42C47.6528 20.9815 47.8843 20.9296 48.09 20.82C48.3062 20.7538 48.5 20.6292 48.65 20.46C48.8232 20.3075 48.9512 20.1103 49.02 19.89C49.1306 19.6847 49.1825 19.4529 49.17 19.22C49.1665 18.7544 48.9797 18.3089 48.65 17.98C48.3191 17.6608 47.8797 17.4786 47.42 17.47H45.42C45.184 17.4587 44.9493 17.5105 44.74 17.62C44.5262 17.6914 44.3337 17.8152 44.18 17.98C44.0127 18.1357 43.8886 18.3321 43.82 18.55C43.7104 18.7557 43.6586 18.9872 43.67 19.22C43.674 19.6836 43.8567 20.1278 44.18 20.46C44.5139 20.7808 44.957 20.963 45.42 20.97Z" fill="#393D46"/>
</g>
</g>
</svg>
