<svg width="70" height="70" viewBox="0 0 70 70" fill="none" xmlns="http://www.w3.org/2000/svg">
<g id="livingKitchen">
<g id="Vector">
<path fill-rule="evenodd" clip-rule="evenodd" d="M10.1799 36.53C10.1799 34.1441 12.1141 32.21 14.4999 32.21H54.5299C56.9158 32.21 58.8499 34.1441 58.8499 36.53V36.54C58.8499 38.9258 56.9158 40.86 54.5299 40.86H14.4999C12.1141 40.86 10.1799 38.9258 10.1799 36.54V36.53ZM14.4999 35.71C14.0471 35.71 13.6799 36.0771 13.6799 36.53V36.54C13.6799 36.9928 14.0471 37.36 14.4999 37.36H54.5299C54.9828 37.36 55.3499 36.9928 55.3499 36.54V36.53C55.3499 36.0771 54.9828 35.71 54.5299 35.71H14.4999Z" fill="#393D46"/>
<path d="M32.76 40.03V61.41C32.76 61.8742 32.9444 62.3193 33.2726 62.6475C33.6008 62.9757 34.0459 63.16 34.51 63.16C34.9741 63.16 35.4193 62.9757 35.7474 62.6475C36.0756 62.3193 36.26 61.8742 36.26 61.41V40.03C36.26 39.5659 36.0756 39.1208 35.7474 38.7926C35.4193 38.4644 34.9741 38.28 34.51 38.28C34.0459 38.28 33.6008 38.4644 33.2726 38.7926C32.9444 39.1208 32.76 39.5659 32.76 40.03Z" fill="#393D46"/>
<path d="M25.7399 63.1001L32.5099 60.3001L33.5099 59.9101C33.9234 59.7576 34.2749 59.4729 34.5099 59.1001C34.7424 58.6903 34.8069 58.2064 34.6899 57.7501C34.5594 57.3056 34.2608 56.9296 33.8575 56.7018C33.4541 56.474 32.9779 56.4124 32.5299 56.5301L25.7299 59.3201L24.7299 59.7201C24.3153 59.8652 23.9625 60.1474 23.7299 60.5201C23.4975 60.9298 23.4329 61.4137 23.5499 61.8701C23.6784 62.3163 23.9761 62.6947 24.3797 62.9245C24.7832 63.1543 25.2606 63.2173 25.7099 63.1001H25.7399Z" fill="#393D46"/>
<path d="M44.17 59.7199L37.37 56.9299L36.37 56.5299C36.1445 56.467 35.9086 56.4505 35.6765 56.4815C35.4445 56.5124 35.2211 56.5901 35.02 56.7099C34.6379 56.9317 34.3525 57.2884 34.22 57.7099C34.1011 58.1726 34.1701 58.6636 34.4117 59.0757C34.6534 59.4878 35.0481 59.7877 35.51 59.9099L42.31 62.6999L43.31 63.0999C43.5319 63.1605 43.7636 63.1768 43.9919 63.1478C44.2201 63.1187 44.4403 63.045 44.64 62.9307C44.8397 62.8165 45.0149 62.664 45.1556 62.482C45.2963 62.2999 45.3998 62.092 45.46 61.8699C45.5696 61.4235 45.5043 60.9521 45.2774 60.5524C45.0506 60.1526 44.6794 59.8548 44.24 59.7199H44.17Z" fill="#393D46"/>
<path fill-rule="evenodd" clip-rule="evenodd" d="M51.2122 48.3601C51.1415 48.3764 51.0762 48.4122 51.0241 48.4643C50.951 48.5375 50.9099 48.6367 50.9099 48.7401C50.9099 48.8435 50.951 48.9427 51.0241 49.0159C51.0973 49.089 51.1965 49.1301 51.2999 49.1301H62.2499V48.3601H51.2122ZM53.0499 44.8601H65.7499V52.6301H51.2999C50.2681 52.6301 49.2787 52.2202 48.5493 51.4907C47.8198 50.7613 47.4099 49.7719 47.4099 48.7401C47.4099 47.7083 47.8198 46.7189 48.5493 45.9895C49.2787 45.26 50.2681 44.8501 51.2999 44.8501H53.0499V44.8601Z" fill="#393D46"/>
<path d="M65.71 61.41V47.01C65.71 42.28 65.98 37.57 66.42 32.85C66.67 30.15 66.96 27.45 67.25 24.75C67.25 24.2876 67.067 23.844 66.7409 23.5161C66.4149 23.1882 65.9724 23.0026 65.51 23C65.049 23.0102 64.6098 23.1978 64.2838 23.5238C63.9578 23.8498 63.7702 24.2891 63.76 24.75C63.25 29.47 62.76 34.2 62.45 38.95C62.14 43.7 62.22 48.46 62.22 53.22V61.41C62.22 61.8741 62.4043 62.3192 62.7325 62.6474C63.0607 62.9756 63.5058 63.16 63.97 63.16C64.4341 63.16 64.8792 62.9756 65.2074 62.6474C65.5356 62.3192 65.72 61.8741 65.72 61.41H65.71Z" fill="#393D46"/>
<path d="M50.9099 61.41V48.75C50.9099 48.2859 50.7255 47.8408 50.3973 47.5126C50.0692 47.1844 49.624 47 49.1599 47C48.6958 47 48.2507 47.1844 47.9225 47.5126C47.5943 47.8408 47.4099 48.2859 47.4099 48.75V61.41C47.4099 61.8741 47.5943 62.3192 47.9225 62.6474C48.2507 62.9756 48.6958 63.16 49.1599 63.16C49.624 63.16 50.0692 62.9756 50.3973 62.6474C50.7255 62.3192 50.9099 61.8741 50.9099 61.41Z" fill="#393D46"/>
<path fill-rule="evenodd" clip-rule="evenodd" d="M3.5501 44.8699H17.9601C18.9919 44.8699 19.9813 45.2798 20.7107 46.0093C21.4402 46.7387 21.8501 47.7281 21.8501 48.7599V48.7679C21.8454 49.7966 21.4332 50.7815 20.7043 51.507C19.9753 52.2325 18.9887 52.6399 17.9601 52.6399H3.5501V44.8699ZM7.0501 48.3699V49.1399H17.9601C18.0631 49.1399 18.1621 49.0991 18.2353 49.0262C18.3074 48.9545 18.3486 48.8573 18.3501 48.7559C18.349 48.6539 18.3081 48.5563 18.2359 48.4841C18.1627 48.411 18.0635 48.3699 17.9601 48.3699H7.0501Z" fill="#393D46"/>
<path d="M7.05001 61.41V47.01C7.05001 42.28 6.78001 37.57 6.34001 32.85C6.09001 30.15 5.80001 27.45 5.51001 24.75C5.49502 24.2906 5.30583 23.8542 4.98084 23.5292C4.65584 23.2042 4.21938 23.015 3.76001 23C3.29588 23 2.85076 23.1844 2.52257 23.5126C2.19438 23.8408 2.01001 24.2859 2.01001 24.75C2.51001 29.47 3.01001 34.2 3.32001 38.95C3.63001 43.7 3.51001 48.46 3.51001 53.22V61.41C3.51001 61.8741 3.69438 62.3192 4.02257 62.6474C4.35076 62.9756 4.79588 63.16 5.26001 63.16C5.72414 63.16 6.16926 62.9756 6.49745 62.6474C6.82563 62.3192 7.01001 61.8741 7.01001 61.41H7.05001Z" fill="#393D46"/>
<path d="M21.8501 61.41V48.75C21.8501 48.2859 21.6657 47.8408 21.3375 47.5126C21.0093 47.1844 20.5642 47 20.1001 47C19.636 47 19.1909 47.1844 18.8627 47.5126C18.5345 47.8408 18.3501 48.2859 18.3501 48.75V61.41C18.3501 61.8741 18.5345 62.3192 18.8627 62.6474C19.1909 62.9756 19.636 63.16 20.1001 63.16C20.5642 63.16 21.0093 62.9756 21.3375 62.6474C21.6657 62.3192 21.8501 61.8741 21.8501 61.41Z" fill="#393D46"/>
</g>
</g>
</svg>
