<svg width="70" height="70" viewBox="0 0 70 70" fill="none" xmlns="http://www.w3.org/2000/svg">
<g id="masterBedroom">
<g id="Vector">
<path d="M63.43 59.5099H9.09C8.35 59.5099 7.6 59.5099 6.86 59.5099C6.83021 59.515 6.79979 59.515 6.77 59.5099L8.52 61.2599V47.0699L6.75 48.8199H61.09C61.83 48.8199 62.58 48.8199 63.32 48.8199H63.41L61.68 47.0699V61.2599C61.68 61.7241 61.8644 62.1692 62.1926 62.4974C62.5208 62.8256 62.9659 63.0099 63.43 63.0099C63.8941 63.0099 64.3392 62.8256 64.6674 62.4974C64.9956 62.1692 65.18 61.7241 65.18 61.2599V47.0699C65.1723 46.6082 64.9854 46.1676 64.6589 45.841C64.3324 45.5145 63.8917 45.3276 63.43 45.3199H13.7C11.42 45.3199 9.12 45.2499 6.84 45.3199H6.75C6.28828 45.3276 5.84763 45.5145 5.5211 45.841C5.19457 46.1676 5.00772 46.6082 5 47.0699V61.2599C5.0052 61.7224 5.19124 62.1646 5.51831 62.4916C5.84538 62.8187 6.28748 63.0047 6.75 63.0099H56.48C58.76 63.0099 61.06 63.0899 63.34 63.0099H63.43C63.8941 63.0099 64.3392 62.8256 64.6674 62.4974C64.9956 62.1692 65.18 61.7241 65.18 61.2599C65.18 60.7958 64.9956 60.3507 64.6674 60.0225C64.3392 59.6943 63.8941 59.5099 63.43 59.5099Z" fill="#393D46"/>
<path d="M60.9 45.1299H15.64C13.56 45.1299 11.44 45.0099 9.37003 45.1299H9.28003L11.03 46.8799V22.7799L9.28003 24.5699H54.54C56.62 24.5699 58.74 24.6899 60.81 24.5699H60.9L59.15 22.8199V46.9199C59.15 47.384 59.3344 47.8291 59.6626 48.1573C59.9908 48.4855 60.4359 48.6699 60.9 48.6699C61.3642 48.6699 61.8093 48.4855 62.1375 48.1573C62.4657 47.8291 62.65 47.384 62.65 46.9199V22.7799C62.6448 22.3174 62.4588 21.8753 62.1317 21.5482C61.8047 21.2211 61.3625 21.0351 60.9 21.0299H15.64C13.55 21.0299 11.45 20.9599 9.37003 21.0299H9.28003C8.81751 21.0351 8.37541 21.2211 8.04834 21.5482C7.72127 21.8753 7.53523 22.3174 7.53003 22.7799V46.8799C7.53523 47.3424 7.72127 47.7845 8.04834 48.1116C8.37541 48.4387 8.81751 48.6247 9.28003 48.6299H54.54C56.63 48.6299 58.73 48.6999 60.81 48.6299H60.9C61.3642 48.6299 61.8093 48.4455 62.1375 48.1173C62.4657 47.7891 62.65 47.344 62.65 46.8799C62.65 46.4158 62.4657 45.9706 62.1375 45.6425C61.8093 45.3143 61.3642 45.1299 60.9 45.1299Z" fill="#393D46"/>
<path d="M54.63 45.3201H15.55L17.3 47.0701V44.7501C17.3 44.4201 17.3 44.1001 17.3 43.7501C17.3 43.7501 17.3 43.4501 17.3 43.6301C17.3 43.8101 17.36 43.3801 17.38 43.3001C17.4128 43.2281 17.4495 43.1579 17.49 43.0901C17.5275 43.0197 17.571 42.9528 17.62 42.8901C17.52 43.0301 17.54 42.9601 17.62 42.8901C17.7 42.8201 17.98 42.5901 17.75 42.7501C17.883 42.6583 18.0235 42.578 18.17 42.5101C17.91 42.6301 18.27 42.5101 18.36 42.5101C18.66 42.4201 18.25 42.5101 18.57 42.5101H50.09C50.61 42.5101 51.09 42.5101 51.64 42.5101C52.19 42.5101 51.51 42.4501 51.76 42.5101C51.84 42.5101 52.23 42.6401 52.1 42.5901C51.97 42.5401 52.32 42.7201 52.39 42.7601L52.62 42.9801C52.82 43.1601 52.62 42.8801 52.73 43.1301C52.73 43.2201 52.91 43.5601 52.83 43.2901C52.8841 43.4462 52.9242 43.6068 52.95 43.7701C52.95 43.5601 52.95 43.7001 52.95 43.8201C52.95 44.6501 52.95 45.4701 52.95 46.3001V47.1201C52.95 47.5842 53.1344 48.0293 53.4626 48.3575C53.7908 48.6857 54.2359 48.8701 54.7 48.8701C55.1642 48.8701 55.6093 48.6857 55.9375 48.3575C56.2657 48.0293 56.45 47.5842 56.45 47.1201C56.45 45.2101 56.8 42.8201 55.64 41.1201C55.1913 40.4742 54.5934 39.946 53.8971 39.5804C53.2007 39.2149 52.4265 39.0226 51.64 39.0201H19.73C18.7152 38.9342 17.6936 39.0602 16.73 39.3901C15.8647 39.7528 15.1244 40.3608 14.6002 41.139C14.076 41.9173 13.7909 42.8318 13.78 43.7701C13.78 44.5801 13.78 45.3901 13.78 46.2001V47.0801C13.7852 47.5426 13.9713 47.9847 14.2983 48.3117C14.6254 48.6388 15.0675 48.8249 15.53 48.8301H54.63C55.0942 48.8301 55.5393 48.6457 55.8675 48.3175C56.1957 47.9893 56.38 47.5442 56.38 47.0801C56.38 46.6159 56.1957 46.1708 55.8675 45.8426C55.5393 45.5144 55.0942 45.3301 54.63 45.3301V45.3201Z" fill="#393D46"/>
<path fill-rule="evenodd" clip-rule="evenodd" d="M17.99 33.8999C17.99 31.2765 20.1166 29.1499 22.74 29.1499H32.09C34.7133 29.1499 36.84 31.2765 36.84 33.8999V37.7599C36.84 40.3833 34.7133 42.5099 32.09 42.5099H22.74C20.1166 42.5099 17.99 40.3833 17.99 37.7599V33.8999ZM22.74 32.6499C22.0496 32.6499 21.49 33.2095 21.49 33.8999V37.7599C21.49 38.4503 22.0496 39.0099 22.74 39.0099H32.09C32.7803 39.0099 33.34 38.4503 33.34 37.7599V33.8999C33.34 33.2095 32.7803 32.6499 32.09 32.6499H22.74Z" fill="#393D46"/>
<path fill-rule="evenodd" clip-rule="evenodd" d="M33.34 33.8999C33.34 31.2765 35.4667 29.1499 38.0901 29.1499H47.4401C50.0634 29.1499 52.1901 31.2765 52.1901 33.8999V37.7599C52.1901 40.3833 50.0634 42.5099 47.4401 42.5099H38.0901C35.4667 42.5099 33.34 40.3833 33.34 37.7599V33.8999ZM38.0901 32.6499C37.3997 32.6499 36.84 33.2095 36.84 33.8999V37.7599C36.84 38.4503 37.3997 39.0099 38.0901 39.0099H47.4401C48.1304 39.0099 48.6901 38.4503 48.6901 37.7599V33.8999C48.6901 33.2095 48.1304 32.6499 47.4401 32.6499H38.0901Z" fill="#393D46"/>
</g>
</g>
</svg>
