<svg width="70" height="70" viewBox="0 0 70 70" fill="none" xmlns="http://www.w3.org/2000/svg">
<g id="oknaNa2Storony">
<g id="Vector">
<path d="M11.5 56.4502V14.2502C11.5 14.1402 11.5 14.0202 11.5 13.9102C11.5 14.2002 11.57 13.7202 11.6 13.6302C11.644 13.5306 11.694 13.4337 11.75 13.3402C11.75 13.2602 12.04 12.9602 11.86 13.1602C11.97 13.0402 12.08 12.9302 12.2 12.8202C12.01 12.9602 12.32 12.7102 12.2 12.8202L12.55 12.6102C12.8 12.4602 12.46 12.6102 12.75 12.5402C12.84 12.5402 13.23 12.4402 12.95 12.4702H51.8C53.37 12.4702 54.98 12.3802 56.55 12.4702C56.6346 12.4843 56.7182 12.5044 56.8 12.5302L57.04 12.6002C57.04 12.6002 57.33 12.7602 57.46 12.8602C57.24 12.6902 57.59 13.0102 57.65 13.0702C57.7124 13.1564 57.7692 13.2466 57.82 13.3402C57.87 13.4202 58.01 13.7702 57.93 13.5202C57.93 13.6802 58.02 13.8402 58.06 14.0002C58 13.7202 58.06 14.1402 58.06 14.2202C58.06 14.3002 58.06 14.4502 58.06 14.5702V51.1702C58.06 52.9102 58.06 54.6602 58.06 56.4102C58.06 56.5002 57.99 56.9302 58.06 56.6302C58.06 56.7402 57.92 57.1502 57.95 57.0602C57.98 56.9702 57.95 57.1402 57.95 57.1502L57.83 57.3602L57.7 57.5702C57.55 57.7502 57.28 57.9602 57.51 57.7802C57.3564 57.8954 57.1924 57.9958 57.02 58.0802L56.78 58.1602C56.73 58.1602 56.39 58.2402 56.6 58.1602C56.81 58.0802 56.5 58.1602 56.49 58.1602H12.99L12.75 58.1002L12.51 58.0202L12.08 57.7702C11.86 57.6202 12.25 57.9302 12.08 57.7702C12.0284 57.7087 11.9715 57.6518 11.91 57.6002C11.7 57.4102 11.91 57.6902 11.78 57.4402C11.65 57.1902 11.61 57.1602 11.54 57.0102C11.66 57.2902 11.54 56.8102 11.48 56.7202C11.48 56.6002 11.48 56.4902 11.48 56.3702C11.48 55.9061 11.2956 55.461 10.9674 55.1328C10.6392 54.8046 10.1941 54.6202 9.72998 54.6202C9.26585 54.6202 8.82074 54.8046 8.49255 55.1328C8.16437 55.461 7.97998 55.9061 7.97998 56.3702C8.00364 57.7743 8.57942 59.1125 9.58263 60.0952C10.5858 61.0778 11.9357 61.6257 13.34 61.6202C14 61.6202 14.65 61.6202 15.34 61.6202H49.92C51.98 61.6202 54.05 61.6202 56.12 61.6202C57.4349 61.6427 58.7117 61.1782 59.7048 60.3161C60.698 59.454 61.3373 58.2552 61.5 56.9502C61.5299 56.3806 61.5299 55.8098 61.5 55.2402V14.5702C61.5461 13.5574 61.3073 12.5519 60.8105 11.6681C60.3138 10.7842 59.5791 10.0574 58.69 9.57022C57.667 9.11211 56.549 8.90634 55.43 8.97022H14.12C13.0724 8.91024 12.0244 9.08092 11.05 9.47022C10.1042 9.92237 9.31136 10.6415 8.76938 11.5389C8.2274 12.4362 7.95994 13.4726 7.99998 14.5202V56.4502C7.99998 56.9144 8.18435 57.3595 8.51254 57.6877C8.84073 58.0159 9.28586 58.2002 9.74998 58.2002C10.2141 58.2002 10.6592 58.0159 10.9874 57.6877C11.3156 57.3595 11.5 56.9144 11.5 56.4502Z" fill="#393D46"/>
<path d="M14.8501 17.1702V26.0002C14.8501 26.4643 15.0345 26.9094 15.3627 27.2376C15.6908 27.5658 16.136 27.7502 16.6001 27.7502C17.0642 27.7502 17.5093 27.5658 17.8375 27.2376C18.1657 26.9094 18.3501 26.4643 18.3501 26.0002V17.1702C18.3397 16.7121 18.151 16.2761 17.8242 15.9549C17.4975 15.6338 17.0583 15.4527 16.6001 15.4502C16.1392 15.4604 15.6999 15.648 15.3739 15.974C15.0479 16.3 14.8603 16.7393 14.8501 17.2002V17.1702Z" fill="#393D46"/>
<path d="M25.4401 15.4502H16.6001C16.136 15.4502 15.6908 15.6346 15.3627 15.9628C15.0345 16.2909 14.8501 16.7361 14.8501 17.2002C14.8501 17.6643 15.0345 18.1094 15.3627 18.4376C15.6908 18.7658 16.136 18.9502 16.6001 18.9502H25.4401C25.9042 18.9502 26.3493 18.7658 26.6775 18.4376C27.0057 18.1094 27.1901 17.6643 27.1901 17.2002C27.1901 16.7361 27.0057 16.2909 26.6775 15.9628C26.3493 15.6346 25.9042 15.4502 25.4401 15.4502Z" fill="#393D46"/>
<path d="M29.8801 27.9701L17.8401 15.9501C17.5086 15.6225 17.0605 15.4401 16.5945 15.4429C16.1285 15.4457 15.6826 15.6335 15.3551 15.9651C15.0275 16.2966 14.8451 16.7446 14.8479 17.2107C14.8507 17.6767 15.0386 18.1225 15.3701 18.4501L25.9001 28.9401L27.4001 30.4401C27.7276 30.7689 28.1724 30.9542 28.6366 30.9552C29.1007 30.9561 29.5462 30.7726 29.8751 30.4451C30.204 30.1175 30.3892 29.6728 30.3902 29.2086C30.3911 28.7444 30.2076 28.2989 29.8801 27.9701Z" fill="#393D46"/>
<path d="M54.72 53.5402V44.7002C54.72 44.2361 54.5356 43.7909 54.2074 43.4628C53.8792 43.1346 53.4341 42.9502 52.97 42.9502C52.5058 42.9502 52.0607 43.1346 51.7325 43.4628C51.4043 43.7909 51.22 44.2361 51.22 44.7002V53.5402C51.22 54.0043 51.4043 54.4494 51.7325 54.7776C52.0607 55.1058 52.5058 55.2902 52.97 55.2902C53.4341 55.2902 53.8792 55.1058 54.2074 54.7776C54.5356 54.4494 54.72 54.0043 54.72 53.5402Z" fill="#393D46"/>
<path d="M44.1399 55.29L52.97 55.2902C53.4341 55.2902 53.8792 55.1058 54.2074 54.7776C54.5356 54.4494 54.72 54.0043 54.72 53.5402C54.72 53.0761 54.5355 52.6308 54.2073 52.3026C53.8791 51.9744 53.434 51.79 52.9699 51.79H44.1399C43.6766 51.7927 43.233 51.9779 42.9053 52.3055C42.5777 52.6331 42.3925 53.0767 42.3899 53.54C42.4001 54.001 42.5877 54.4402 42.9137 54.7662C43.2397 55.0922 43.679 55.2798 44.1399 55.29Z" fill="#393D46"/>
<path d="M39.6999 42.7401L51.7399 54.7701C52.0738 55.0645 52.5073 55.2206 52.9522 55.2066C53.3971 55.1926 53.82 55.0097 54.1347 54.6949C54.4495 54.3802 54.6325 53.9573 54.6464 53.5124C54.6604 53.0675 54.5043 52.634 54.2099 52.3001L42.1699 40.2601C41.841 39.9326 41.3955 39.7491 40.9314 39.75C40.4672 39.7509 40.0225 39.9362 39.6949 40.2651C39.3674 40.594 39.1839 41.0395 39.1848 41.5036C39.1858 41.9678 39.371 42.4126 39.6999 42.7401Z" fill="#393D46"/>
</g>
</g>
</svg>
