<svg width="70" height="70" viewBox="0 0 70 70" fill="none" xmlns="http://www.w3.org/2000/svg">
<g id="panoramnoeOsteklenie">
<g id="Vector">
<path d="M9.51001 56.43V14.26C9.51001 14.14 9.51001 14.02 9.51001 13.91C9.51001 13.8 9.51001 14.15 9.51001 13.91C9.51001 13.67 9.64001 13.45 9.60001 13.57C9.71223 13.3295 9.86438 13.1097 10.05 12.92C10.24 12.71 9.97001 12.92 10.21 12.79L10.59 12.58L10.93 12.49C10.69 12.49 11.21 12.41 10.93 12.49H53.45C55.01 12.49 56.58 12.49 58.14 12.49H58.4C58.14 12.42 58.3 12.49 58.4 12.49C58.48 12.49 58.86 12.64 58.6 12.49C58.7753 12.5709 58.9427 12.668 59.1 12.78L59.34 13.01L59.47 13.21C59.47 13.3 59.71 13.73 59.61 13.46C59.6672 13.6201 59.714 13.7838 59.75 13.95C59.69 13.66 59.75 14.08 59.75 14.17C59.75 14.26 59.75 14.42 59.75 14.55V56.55C59.75 56.86 59.75 56.48 59.75 56.76C59.7227 56.8684 59.6893 56.9753 59.65 57.08C59.5651 57.25 59.4682 57.4138 59.36 57.57C59.53 57.34 59.21 57.7 59.14 57.76C59.07 57.82 59.34 57.64 59.14 57.76L58.93 57.89C58.85 57.94 58.5 58.08 58.76 57.99L58.44 58.09C58.44 58.09 58.15 58.15 58.33 58.09C58.51 58.03 58.05 58.09 58.05 58.09H11.26C11.1469 58.0999 11.0331 58.0999 10.92 58.09C10.68 58.04 10.36 57.91 10.63 58.03C10.48 57.96 10.34 57.87 10.2 57.79L10.12 57.73C10.27 57.85 10.02 57.63 9.99001 57.6L9.82001 57.42C9.71484 57.2602 9.62127 57.0931 9.54001 56.92C9.65001 57.18 9.54001 56.8 9.54001 56.71C9.45001 56.42 9.54001 56.58 9.54001 56.71C9.54001 56.59 9.54001 56.47 9.54001 56.36C9.54001 55.8959 9.35564 55.4508 9.02745 55.1226C8.69926 54.7944 8.25414 54.61 7.79001 54.61C7.32588 54.61 6.88076 54.7944 6.55257 55.1226C6.22438 55.4508 6.04001 55.8959 6.04001 56.36C6.06628 57.7667 6.64564 59.1065 7.6526 60.0891C8.65956 61.0717 10.0131 61.6181 11.42 61.61H57.42C58.6964 61.6999 59.9691 61.3887 61.06 60.72C61.819 60.1701 62.4288 59.4394 62.8339 58.5943C63.239 57.7491 63.4267 56.8161 63.38 55.88V14.6C63.4305 13.5502 63.1736 12.5084 62.6407 11.6025C62.1078 10.6966 61.3221 9.9659 60.38 9.5C59.3949 9.11136 58.3373 8.94078 57.28 9H11.33C9.93005 9.00769 8.58889 9.56383 7.59429 10.5491C6.5997 11.5343 6.03092 12.8702 6.01001 14.27C6.01001 16.16 6.01001 18.06 6.01001 19.96V56.43C6.01001 56.8941 6.19438 57.3392 6.52257 57.6674C6.85076 57.9956 7.29588 58.18 7.76001 58.18C8.22414 58.18 8.66926 57.9956 8.99745 57.6674C9.32563 57.3392 9.51001 56.8941 9.51001 56.43Z" fill="#393D46"/>
<path fill-rule="evenodd" clip-rule="evenodd" d="M33.9199 59.93V10.2H37.4199V59.93H33.9199Z" fill="#393D46"/>
<path fill-rule="evenodd" clip-rule="evenodd" d="M34.0801 28.46H61.5601V31.96H34.0801V28.46Z" fill="#393D46"/>
<path d="M22.47 33.5701V16.5701C22.47 16.1059 22.2856 15.6608 21.9574 15.3326C21.6292 15.0044 21.1841 14.8201 20.72 14.8201C20.2558 14.8201 19.8107 15.0044 19.4825 15.3326C19.1543 15.6608 18.97 16.1059 18.97 16.5701V33.5701C18.97 34.0342 19.1543 34.4793 19.4825 34.8075C19.8107 35.1357 20.2558 35.3201 20.72 35.3201C21.1841 35.3201 21.6292 35.1357 21.9574 34.8075C22.2856 34.4793 22.47 34.0342 22.47 33.5701Z" fill="#393D46"/>
<path d="M19.4899 15.3099L13.2399 21.5599C12.9157 21.8892 12.7339 22.3328 12.7339 22.7949C12.7339 23.257 12.9157 23.7006 13.2399 24.0299C13.5717 24.3495 14.0143 24.528 14.4749 24.528C14.9356 24.528 15.3782 24.3495 15.7099 24.0299L21.1799 18.5599L21.9599 17.7899C22.1228 17.6277 22.2521 17.435 22.3405 17.2229C22.4288 17.0107 22.4746 16.7833 22.475 16.5534C22.4755 16.3236 22.4307 16.0959 22.3432 15.8834C22.2556 15.6709 22.1271 15.4777 21.9649 15.3149C21.8028 15.1521 21.6101 15.0228 21.3979 14.9344C21.1858 14.846 20.9583 14.8003 20.7285 14.7998C20.4987 14.7993 20.271 14.8442 20.0585 14.9317C19.846 15.0192 19.6528 15.1477 19.4899 15.3099Z" fill="#393D46"/>
<path d="M28.2099 21.5599L21.9599 15.3099C21.7971 15.1477 21.6039 15.0192 21.3914 14.9317C21.1789 14.8442 20.9512 14.7993 20.7214 14.7998C20.4916 14.8003 20.2641 14.846 20.052 14.9344C19.8398 15.0228 19.6471 15.1521 19.4849 15.3149C19.3228 15.4777 19.1942 15.6709 19.1067 15.8834C19.0192 16.0959 18.9744 16.3236 18.9749 16.5534C18.9753 16.7833 19.021 17.0107 19.1094 17.2229C19.1978 17.435 19.3271 17.6277 19.4899 17.7899L25.7299 24.0299C26.0575 24.3588 26.5023 24.5441 26.9664 24.545C27.4306 24.5459 27.8761 24.3624 28.2049 24.0349C28.5338 23.7074 28.7191 23.2626 28.72 22.7984C28.721 22.3343 28.5375 21.8888 28.2099 21.5599Z" fill="#393D46"/>
<path d="M18.97 32.8999V53.8999C18.97 54.364 19.1543 54.8092 19.4825 55.1373C19.8107 55.4655 20.2558 55.6499 20.72 55.6499C21.1841 55.6499 21.6292 55.4655 21.9574 55.1373C22.2856 54.8092 22.47 54.364 22.47 53.8999V32.8999C22.47 32.4358 22.2856 31.9907 21.9574 31.6625C21.6292 31.3343 21.1841 31.1499 20.72 31.1499C20.2558 31.1499 19.8107 31.3343 19.4825 31.6625C19.1543 31.9907 18.97 32.4358 18.97 32.8999Z" fill="#393D46"/>
<path d="M21.96 52.6899L16.49 47.2299L15.67 46.4499C15.3408 46.1256 14.8972 45.9438 14.435 45.9438C13.9729 45.9438 13.5293 46.1256 13.2 46.4499C12.8805 46.7816 12.7019 47.2243 12.7019 47.6849C12.7019 48.1455 12.8805 48.5882 13.2 48.9199L19.45 55.1699C19.7793 55.4942 20.2229 55.676 20.685 55.676C21.1472 55.676 21.5908 55.4942 21.92 55.1699C22.2403 54.8365 22.4191 54.3922 22.4191 53.9299C22.4191 53.4676 22.2403 53.0233 21.92 52.6899H21.96Z" fill="#393D46"/>
<path d="M25.7299 46.45L20.2599 51.9L19.4899 52.67C19.3271 52.8322 19.1978 53.0248 19.1094 53.237C19.021 53.4491 18.9753 53.6766 18.9749 53.9064C18.9744 54.1363 19.0192 54.3639 19.1067 54.5764C19.1942 54.789 19.3228 54.9821 19.4849 55.145C19.6471 55.3078 19.8398 55.4371 20.052 55.5255C20.2641 55.6139 20.4916 55.6596 20.7214 55.6601C20.9512 55.6605 21.1789 55.6157 21.3914 55.5282C21.6039 55.4407 21.7971 55.3122 21.9599 55.15L28.2099 48.9C28.5319 48.5695 28.712 48.1263 28.712 47.665C28.712 47.2036 28.5319 46.7605 28.2099 46.43C27.8766 46.1097 27.4322 45.9309 26.9699 45.9309C26.5077 45.9309 26.0633 46.1097 25.7299 46.43V46.45Z" fill="#393D46"/>
</g>
</g>
</svg>
