<svg width="70" height="70" viewBox="0 0 70 70" fill="none" xmlns="http://www.w3.org/2000/svg">
<g id="uglovayLivingroom">
<g id="Vector">
<path d="M66.1401 59.6601H59.7601L61.5101 61.4101V48.0001C61.5101 47.8101 61.5101 47.6201 61.5101 47.4201C61.5101 47.8001 61.6801 46.8301 61.5101 47.1601C61.5101 47.0701 61.8501 46.5801 61.6701 46.8201C61.7523 46.7164 61.8426 46.6194 61.9401 46.5301C62.0101 46.4601 62.2901 46.2901 62.0401 46.4401L62.3201 46.2801C62.6501 46.0901 62.1401 46.2801 62.5201 46.2101C62.6301 46.2101 62.7401 46.1501 62.8501 46.1401C62.5001 46.1401 62.9201 46.1401 62.8501 46.1401C62.5301 46.1401 63.2701 46.1401 62.9601 46.1401C62.6501 46.1401 63.2601 46.2101 63.2301 46.2001C63.2001 46.1901 63.5601 46.3101 63.2301 46.2001C63.3401 46.2001 63.4201 46.3001 63.5301 46.3501C63.9401 46.5301 63.4401 46.2401 63.6401 46.4101C63.7632 46.5132 63.877 46.627 63.9801 46.7501C64.1501 46.9501 63.8501 46.4401 64.0401 46.8601C64.0401 46.9601 64.1501 47.0501 64.1901 47.1501C64.0601 46.8301 64.2601 47.6601 64.2401 47.4701C64.2201 47.2801 64.2401 47.6201 64.2401 47.6801C64.2401 49.9101 64.2401 52.1401 64.2401 54.3701V61.3701C64.2453 61.8326 64.4313 62.2747 64.7584 62.6018C65.0855 62.9288 65.5276 63.1149 65.9901 63.1201C66.4526 63.1149 66.8947 62.9288 67.2218 62.6018C67.5488 62.2747 67.7349 61.8326 67.7401 61.3701C67.7401 56.8001 67.7401 52.2201 67.7401 47.6501C67.7473 46.4923 67.3524 45.3679 66.6229 44.4688C65.8934 43.5697 64.8745 42.9516 63.7401 42.7201C63.0667 42.6207 62.3802 42.6599 61.7225 42.8351C61.0648 43.0104 60.4498 43.3181 59.9152 43.7395C59.3807 44.1608 58.9377 44.6868 58.6136 45.2853C58.2894 45.8838 58.0909 46.5421 58.0301 47.2201C57.9701 47.9401 58.0301 48.6801 58.0301 49.4101V61.4101C58.0378 61.8718 58.2247 62.3124 58.5512 62.639C58.8777 62.9655 59.3184 63.1524 59.7801 63.1601H66.1601C66.6218 63.1524 67.0625 62.9655 67.389 62.639C67.7155 62.3124 67.9024 61.8718 67.9101 61.4101C67.9048 60.9441 67.716 60.499 67.3846 60.1714C67.0533 59.8438 66.6061 59.66 66.1401 59.6601Z" fill="#393D46"/>
<path d="M28.4801 59.66H22.1101L23.8601 61.41V47.41C23.8601 47.79 24.0401 46.82 23.8601 47.15C23.8601 47.06 24.2001 46.57 24.0201 46.81C24.103 46.7038 24.1969 46.6066 24.3001 46.52C24.3601 46.45 24.6401 46.28 24.3901 46.43L24.6701 46.27C25.0101 46.08 24.4901 46.27 24.8701 46.2C24.9801 46.2 25.0901 46.14 25.2001 46.13C24.8501 46.13 25.2701 46.13 25.2501 46.13C24.9401 46.13 25.6701 46.13 25.3701 46.13C25.0701 46.13 25.6601 46.2 25.6401 46.19C25.6201 46.18 25.9601 46.3 25.6901 46.19C25.7901 46.19 25.8801 46.29 25.9801 46.34C26.4001 46.52 25.8901 46.23 26.0901 46.4C26.2141 46.5056 26.331 46.6192 26.4401 46.74C26.6001 46.94 26.3101 46.43 26.4401 46.85L26.6001 47.14C26.4601 46.82 26.6601 47.65 26.6501 47.46C26.6401 47.27 26.6501 47.61 26.6501 47.67C26.6501 49.9 26.6501 52.13 26.6501 54.36V61.36C26.6553 61.8225 26.8414 62.2646 27.1684 62.5917C27.4955 62.9188 27.9376 63.1048 28.4001 63.11C28.8626 63.1048 29.3047 62.9188 29.6318 62.5917C29.9589 62.2646 30.1449 61.8225 30.1501 61.36C30.1501 56.79 30.1501 52.21 30.1501 47.64C30.1573 46.4822 29.7624 45.3578 29.0329 44.4587C28.3034 43.5596 27.2845 42.9416 26.1501 42.71C25.4635 42.5818 24.7576 42.5988 24.0779 42.76C23.3982 42.9213 22.7599 43.2231 22.204 43.6461C21.6482 44.0692 21.1871 44.604 20.8506 45.2161C20.514 45.8282 20.3095 46.504 20.2501 47.2C20.1801 47.92 20.2501 48.66 20.2501 49.39V61.39C20.2553 61.8525 20.4413 62.2946 20.7684 62.6217C21.0955 62.9488 21.5376 63.1348 22.0001 63.14H28.3701C28.8326 63.1348 29.2747 62.9488 29.6018 62.6217C29.9289 62.2946 30.1149 61.8525 30.1201 61.39C30.1113 60.9492 29.9383 60.5275 29.635 60.2075C29.3317 59.8876 28.9198 59.6923 28.4801 59.66Z" fill="#393D46"/>
<path d="M58.95 34.02H48.12C46.8909 34.0171 45.6942 34.4137 44.71 35.15C44.5397 35.2729 44.335 35.339 44.125 35.339C43.915 35.339 43.7104 35.2729 43.54 35.15C42.5511 34.4155 41.3519 34.0193 40.12 34.02H29.29C27.765 34.02 26.3025 34.6258 25.2242 35.7042C24.1458 36.7825 23.54 38.245 23.54 39.77V43.77L24.54 43.31L27.04 43.76V39.76C27.04 39.1633 27.2771 38.591 27.6991 38.169C28.121 37.7471 28.6933 37.51 29.29 37.51H40.12C40.7168 37.51 41.2891 37.7471 41.711 38.169C42.133 38.591 42.37 39.1633 42.37 39.76V49.66H45.87V39.76C45.87 39.1633 46.1071 38.591 46.529 38.169C46.951 37.7471 47.5233 37.51 48.12 37.51H58.95C59.5468 37.51 60.1191 37.7471 60.541 38.169C60.963 38.591 61.2 39.1633 61.2 39.76V43.76L64.7 43.64V39.77C64.7014 39.0146 64.5535 38.2663 64.265 37.568C63.9765 36.8698 63.553 36.2354 63.0188 35.7012C62.4846 35.167 61.8502 34.7435 61.152 34.455C60.4538 34.1665 59.7055 34.0187 58.95 34.02Z" fill="#393D46"/>
<path d="M58.89 47.4399H29.27L29.37 50.9399H58.72L58.89 47.4399Z" fill="#393D46"/>
<path d="M59.41 56.48H29.53L29.63 59.98H60.03L59.41 56.48Z" fill="#393D46"/>
<path d="M31.03 19.82C30.9844 17.7775 30.3794 15.7866 29.281 14.064C28.1825 12.3414 26.6327 10.953 24.8 10.05C22.8908 9.15063 20.7631 8.81951 18.6708 9.09611C16.5785 9.37272 14.61 10.2454 13 11.61C11.7808 12.6601 10.8035 13.9619 10.1355 15.4258C9.46739 16.8896 9.12438 18.4809 9.13004 20.09V52.22C9.13004 55.14 9.05004 58.08 9.13004 61V61.14C9.14023 61.6009 9.32788 62.0401 9.65389 62.3662C9.97989 62.6922 10.4191 62.8798 10.88 62.89C11.3426 62.8848 11.7847 62.6988 12.1117 62.3717C12.4388 62.0446 12.6248 61.6025 12.63 61.14V19.9C12.63 19.67 12.63 19.43 12.63 19.2C12.63 19.2 12.68 18.8 12.63 19C12.58 19.2 12.63 18.91 12.63 18.89C12.716 18.4195 12.8329 17.9551 12.98 17.5L13.1 17.18C13.1 17.18 13.25 16.82 13.17 17L13.25 16.83L13.36 16.61C13.5814 16.1928 13.832 15.7918 14.11 15.41C13.96 15.59 14.27 15.18 14.11 15.41L14.33 15.16C14.45 15.02 14.58 14.88 14.72 14.74C14.8702 14.5798 15.0305 14.4295 15.2 14.29L15.45 14.07C15.68 13.87 15.4 14.07 15.55 14C15.8703 13.7608 16.2042 13.5404 16.55 13.34L17.14 13.05C16.86 13.15 17.07 13.05 17.14 13.05L17.53 12.91C17.9281 12.7729 18.3359 12.666 18.75 12.59L19.08 12.54C18.78 12.54 19 12.54 19.08 12.54H19.86C20.06 12.54 20.26 12.54 20.46 12.54C20.66 12.54 21.18 12.63 20.84 12.54C21.3113 12.6178 21.776 12.7315 22.23 12.88L22.78 13.08C22.51 12.97 23.01 13.2 23.11 13.25C23.5002 13.4571 23.8776 13.6875 24.24 13.94C25.4283 14.8381 26.3369 16.0554 26.86 17.45C27.0104 17.8769 27.1275 18.3149 27.21 18.76C27.2398 18.8714 27.2599 18.9851 27.27 19.1C27.27 19.34 27.27 19.62 27.27 19.88C27.2778 20.3417 27.4646 20.7824 27.7911 21.1089C28.1177 21.4354 28.5583 21.6223 29.02 21.63C29.4834 21.6274 29.927 21.4422 30.2546 21.1145C30.5822 20.7869 30.7674 20.3433 30.77 19.88L31.03 19.82Z" fill="#393D46"/>
<path d="M4.70996 63.1599H16.97C17.4325 63.1547 17.8746 62.9687 18.2016 62.6416C18.5287 62.3145 18.7148 61.8724 18.72 61.4099C18.7148 60.9474 18.5287 60.5053 18.2016 60.1782C17.8746 59.8512 17.4325 59.6651 16.97 59.6599H4.70996C4.24903 59.6701 3.8098 59.8577 3.4838 60.1838C3.15779 60.5098 2.97015 60.949 2.95996 61.4099C2.96516 61.8724 3.1512 62.3145 3.47827 62.6416C3.80534 62.9687 4.24744 63.1547 4.70996 63.1599Z" fill="#393D46"/>
<path d="M25.65 25.8499C25.65 25.5899 25.65 25.3299 25.65 25.0599C25.65 24.9499 25.65 24.8399 25.65 24.7299C25.65 24.6199 25.65 24.5899 25.65 24.5199C25.65 24.2299 25.65 24.6699 25.65 24.6699C25.6741 24.4285 25.7244 24.1904 25.8 23.9599C25.8 23.8499 25.86 23.7399 25.9 23.6299C25.76 23.8799 26 23.2699 25.9 23.6299C26.04 23.3799 26.13 23.0499 26.23 23.0399C26.33 23.0299 25.93 23.3899 26.14 23.1699L26.24 23.0599C26.32 22.9699 26.44 22.8899 26.52 22.7899C26.6 22.6899 26.37 22.9399 26.37 22.8999C26.4235 22.8585 26.4803 22.8217 26.54 22.7899L26.82 22.6199L27.03 22.5199C27.03 22.5199 26.68 22.6299 26.88 22.5899C27.08 22.5499 27.19 22.4699 27.35 22.4299L27.81 22.3199C27.95 22.3199 28.23 22.2499 27.92 22.3199C28.3309 22.2634 28.7453 22.2367 29.16 22.2399C29.56 22.2399 29.96 22.2399 30.36 22.2899H30.59C30.24 22.2299 30.52 22.2899 30.59 22.2899L31.06 22.3899C31.2061 22.4192 31.3498 22.4593 31.49 22.5099L31.72 22.5799L31.91 22.6799C32.0308 22.7464 32.1477 22.8198 32.26 22.8999C32.26 22.8999 31.94 22.5999 32.2 22.8999L32.43 23.1299C32.29 22.8599 32.68 23.3899 32.43 23.1299C32.43 23.2299 32.55 23.3399 32.61 23.4399C32.55 23.1999 32.82 23.7999 32.61 23.4399C32.67 23.6799 32.7 23.6799 32.73 23.7999C32.76 23.9199 32.83 24.2799 32.88 24.5199C32.93 24.7599 32.88 24.1199 32.88 24.3499C32.88 24.4199 32.88 24.4899 32.88 24.5599V24.9699C32.88 25.2799 32.88 25.5899 32.88 25.8899L34.63 24.1399H23.87C23.4067 24.1425 22.9631 24.3277 22.6355 24.6554C22.3078 24.983 22.1226 25.4266 22.12 25.8899C22.1277 26.3516 22.3146 26.7923 22.6411 27.1188C22.9676 27.4453 23.4083 27.6322 23.87 27.6399H34.71C35.1733 27.6373 35.6169 27.452 35.9445 27.1244C36.2722 26.7968 36.4574 26.3532 36.46 25.8899C36.5171 24.5227 36.2819 23.159 35.77 21.8899C35.4453 21.2458 34.9906 20.6761 34.4347 20.2165C33.8788 19.757 33.2336 19.4176 32.54 19.2199C30.7128 18.6676 28.7747 18.5918 26.91 18.9999C26.1442 19.141 25.4147 19.4351 24.7652 19.8647C24.1157 20.2943 23.5596 20.8504 23.13 21.4999C22.3907 22.8438 22.0442 24.3685 22.13 25.8999C22.13 26.364 22.3144 26.8091 22.6425 27.1373C22.9707 27.4655 23.4159 27.6499 23.88 27.6499C24.1146 27.6486 24.3466 27.6009 24.5627 27.5096C24.7789 27.4183 24.9748 27.2852 25.1393 27.1179C25.3038 26.9507 25.4336 26.7525 25.5212 26.5349C25.6089 26.3173 25.6526 26.0845 25.65 25.8499Z" fill="#393D46"/>
</g>
</g>
</svg>
