<svg width="70" height="70" viewBox="0 0 70 70" fill="none" xmlns="http://www.w3.org/2000/svg">
<g id="uglovoeosteclenenie">
<g id="Vector">
<path d="M13.5201 54.1399V15.2199C13.5201 13.4299 13.6401 11.5999 13.5201 9.8099V9.6999L11.3101 11.3899L34.9701 16.6999L33.6901 15.0099V53.9699C33.6901 55.7599 33.5701 57.5899 33.6901 59.3699V59.4499L35.9001 57.7599L15.1701 53.1099L12.2401 52.4599C11.7896 52.3483 11.3134 52.415 10.911 52.646C10.5085 52.8771 10.2108 53.2546 10.0801 53.6999C9.9631 54.1479 10.0264 54.624 10.2563 55.0259C10.4863 55.4278 10.8645 55.7236 11.3101 55.8499L34.9701 61.1599C35.23 61.2263 35.5017 61.233 35.7646 61.1796C36.0276 61.1262 36.2751 61.0141 36.4886 60.8515C36.7021 60.689 36.8761 60.4803 36.9976 60.2411C37.119 60.0018 37.1848 59.7382 37.1901 59.4699V20.5199C37.1901 18.7199 37.2701 16.9099 37.1901 15.1199V15.0399C37.1855 14.6569 37.0575 14.2856 36.8251 13.9811C36.5927 13.6767 36.2683 13.4553 35.9001 13.3499L15.1701 8.6999L12.2401 8.0499C11.9832 7.98219 11.7143 7.97319 11.4534 8.02355C11.1926 8.07392 10.9464 8.18237 10.7331 8.34086C10.5199 8.49935 10.3451 8.70381 10.2216 8.93907C10.0982 9.17434 10.0293 9.43437 10.0201 9.6999V48.6999C10.0201 50.4999 9.96006 52.3099 10.0201 54.1099V54.1799C10.0278 54.6416 10.2146 55.0823 10.5412 55.4088C10.8677 55.7353 11.3084 55.9222 11.7701 55.9299C12.0025 55.9273 12.2322 55.8789 12.4459 55.7875C12.6597 55.6962 12.8533 55.5636 13.0158 55.3974C13.1783 55.2311 13.3065 55.0345 13.393 54.8188C13.4795 54.603 13.5227 54.3723 13.5201 54.1399Z" fill="#393D46"/>
<path d="M60.83 54.14V15.22C60.83 13.42 60.89 11.61 60.83 9.80996V9.69996C60.8267 9.4323 60.7624 9.16891 60.6421 8.92984C60.5217 8.69076 60.3483 8.48229 60.1352 8.3203C59.9221 8.15831 59.6749 8.04706 59.4123 7.99501C59.1497 7.94297 58.8787 7.9515 58.62 8.01996L50.62 9.80996L37.89 12.7L34.96 13.36C34.5936 13.4672 34.2714 13.6893 34.0409 13.9936C33.8104 14.2979 33.6839 14.6683 33.68 15.05V53.97C33.68 55.77 33.62 57.57 33.68 59.37V59.45C33.6837 59.7178 33.7481 59.9813 33.8684 60.2206C33.9888 60.46 34.1618 60.6689 34.3746 60.8316C34.5874 60.9943 34.8343 61.1066 35.0968 61.16C35.3593 61.2134 35.6305 61.2066 35.89 61.14L43.89 59.34L56.63 56.49L59.56 55.83C59.9974 55.6995 60.3675 55.405 60.593 55.0081C60.8185 54.6112 60.8819 54.1425 60.77 53.7C60.6394 53.2577 60.3423 52.8834 59.9413 52.6559C59.5403 52.4283 59.0666 52.3652 58.62 52.48L37.88 57.12L34.95 57.78L37.17 59.47V20.52C37.17 18.73 37.28 16.9 37.17 15.12V15.04L35.89 16.7L59.56 11.39L57.33 9.69996V48.7C57.33 50.5 57.27 52.31 57.33 54.11V54.18C57.3377 54.6417 57.5245 55.0823 57.8511 55.4089C58.1776 55.7354 58.6183 55.9222 59.08 55.93C59.3124 55.9273 59.5421 55.879 59.7558 55.7876C59.9696 55.6962 60.1632 55.5637 60.3257 55.3974C60.4882 55.2312 60.6164 55.0346 60.7029 54.8189C60.7895 54.6031 60.8326 54.3724 60.83 54.14Z" fill="#393D46"/>
<path fill-rule="evenodd" clip-rule="evenodd" d="M10.7827 20.9679L35.7927 26.2679L35.0671 29.6919L10.0571 24.3919L10.7827 20.9679Z" fill="#393D46"/>
<path fill-rule="evenodd" clip-rule="evenodd" d="M60.8125 24.3919L35.7925 29.6919L35.0672 26.2679L60.0872 20.9679L60.8125 24.3919Z" fill="#393D46"/>
<path fill-rule="evenodd" clip-rule="evenodd" d="M21.8501 56.7999V12.3899H25.3501V56.7999H21.8501Z" fill="#393D46"/>
<path fill-rule="evenodd" clip-rule="evenodd" d="M45.51 56.7999V12.3899H49.01V56.7999H45.51Z" fill="#393D46"/>
</g>
</g>
</svg>
