<svg width="70" height="70" viewBox="0 0 70 70" fill="none" xmlns="http://www.w3.org/2000/svg">
<g id="vidvoDvor">
<g id="Vector">
<path d="M19.6899 46.21V59.35C19.6899 59.8141 19.8743 60.2592 20.2025 60.5874C20.5307 60.9156 20.9758 61.1 21.4399 61.1C21.9041 61.1 22.3492 60.9156 22.6774 60.5874C23.0056 60.2592 23.1899 59.8141 23.1899 59.35V46.21C23.1899 45.7458 23.0056 45.3007 22.6774 44.9725C22.3492 44.6443 21.9041 44.46 21.4399 44.46C20.9758 44.46 20.5307 44.6443 20.2025 44.9725C19.8743 45.3007 19.6899 45.7458 19.6899 46.21Z" fill="#393D46"/>
<path d="M47.5801 46.21V59.35C47.5801 59.8141 47.7645 60.2592 48.0927 60.5874C48.4208 60.9156 48.8659 61.1 49.3301 61.1C49.7942 61.1 50.2393 60.9156 50.5675 60.5874C50.8957 60.2592 51.0801 59.8141 51.0801 59.35V46.21C51.0801 45.7458 50.8957 45.3007 50.5675 44.9725C50.2393 44.6443 49.7942 44.46 49.3301 44.46C48.8659 44.46 48.4208 44.6443 48.0927 44.9725C47.7645 45.3007 47.5801 45.7458 47.5801 46.21Z" fill="#393D46"/>
<path d="M34.2 48.3398V59.3398C34.2 59.804 34.3843 60.2491 34.7125 60.5773C35.0407 60.9055 35.4858 61.0898 35.95 61.0898C36.4141 61.0898 36.8592 60.9055 37.1874 60.5773C37.5156 60.2491 37.7 59.804 37.7 59.3398V48.3398C37.6975 47.8833 37.5178 47.4456 37.1988 47.1191C36.8797 46.7926 36.4463 46.6028 35.99 46.5898C35.5282 46.5976 35.0876 46.7844 34.761 47.1109C34.4345 47.4375 34.2477 47.8781 34.24 48.3398H34.2Z" fill="#393D46"/>
<path fill-rule="evenodd" clip-rule="evenodd" d="M10.6399 37.1599C10.6399 31.1952 15.4752 26.3599 21.4399 26.3599C27.4046 26.3599 32.2399 31.1952 32.2399 37.1599C32.2399 43.1245 27.4046 47.9599 21.4399 47.9599C15.4752 47.9599 10.6399 43.1245 10.6399 37.1599ZM21.4399 29.8599C17.4082 29.8599 14.1399 33.1282 14.1399 37.1599C14.1399 41.1915 17.4082 44.46 21.4399 44.46C25.4716 44.46 28.7399 41.1915 28.7399 37.1599C28.7399 33.1282 25.4716 29.8599 21.4399 29.8599Z" fill="#393D46"/>
<path fill-rule="evenodd" clip-rule="evenodd" d="M35.9399 33.4798C35.9399 26.0847 41.9349 20.0898 49.3299 20.0898C56.725 20.0898 62.7199 26.0847 62.7199 33.4798C62.7199 40.8749 56.725 46.8698 49.3299 46.8698C41.9349 46.8698 35.9399 40.8749 35.9399 33.4798ZM49.3299 23.5898C43.8679 23.5898 39.4399 28.0177 39.4399 33.4798C39.4399 38.9419 43.8679 43.3698 49.3299 43.3698C54.792 43.3698 59.2199 38.9419 59.2199 33.4798C59.2199 28.0177 54.792 23.5898 49.3299 23.5898Z" fill="#393D46"/>
<path d="M6.75 61.1H55.75C58 61.1 60.27 61.17 62.52 61.1H62.62C63.0841 61.1 63.5292 60.9156 63.8574 60.5874C64.1856 60.2592 64.37 59.8141 64.37 59.35C64.37 58.8858 64.1856 58.4407 63.8574 58.1125C63.5292 57.7843 63.0841 57.6 62.62 57.6H13.62C11.37 57.6 9.10001 57.53 6.85001 57.6H6.75C6.28587 57.6 5.84076 57.7843 5.51257 58.1125C5.18438 58.4407 5 58.8858 5 59.35C5 59.8141 5.18438 60.2592 5.51257 60.5874C5.84076 60.9156 6.28587 61.1 6.75 61.1Z" fill="#393D46"/>
<path d="M43.7599 43.3598C43.461 43.6587 43.1473 43.9424 42.8199 44.2098L42.6999 44.3098L42.2299 44.6398C41.9076 44.8546 41.5738 45.0516 41.2299 45.2298C40.9399 45.3898 40.6499 45.5298 40.3499 45.6698L40.1299 45.7598L39.5799 45.9598C39.2399 46.0698 38.8899 46.1698 38.5799 46.2498L38.0099 46.3798H36.5999C36.1899 46.3798 35.7799 46.3798 35.3699 46.3798L34.7699 46.3298H34.5699C34.1799 46.2598 33.7899 46.1898 33.4099 46.0898C33.0299 45.9898 32.7099 45.8998 32.3599 45.7798L31.8199 45.5798L31.5799 45.4698C30.912 45.1603 30.2728 44.7922 29.6699 44.3698L29.3699 44.1498L29.0499 43.8998C28.7633 43.6532 28.4833 43.3932 28.2099 43.1198L27.9599 42.8398L25.6899 45.8698C26.8418 47.044 28.1971 47.9995 29.6899 48.6898C33.1656 50.3437 37.1517 50.5664 40.7899 49.3098C43.6022 48.2907 46.0418 46.4471 47.7899 44.0198L43.7599 43.3598Z" fill="#393D46"/>
<path d="M26.42 27.8701C26.3753 26.2216 26.765 24.5904 27.55 23.1401C27.7521 22.7705 27.9758 22.4132 28.2201 22.0701C28.4201 21.7801 28.71 21.5001 28.99 21.0701C29.3202 20.4868 29.4065 19.7967 29.23 19.1501C29.19 18.681 29.19 18.2093 29.23 17.7401C29.235 17.6535 29.235 17.5667 29.23 17.4801C29.2336 17.4101 29.2336 17.3401 29.23 17.2701C29.2466 17.1555 29.2699 17.0419 29.3 16.9301C29.3821 16.5469 29.489 16.1694 29.6201 15.8001L29.7 15.5901V15.5301L29.93 15.0901C30.1021 14.7705 30.2959 14.4631 30.51 14.1701L30.67 13.9601L31.0601 13.5401L31.4101 13.2001L31.6601 12.9901C31.7043 12.9434 31.7548 12.903 31.8101 12.8701L32.0901 12.6701L32.58 12.3701L33.02 12.1401L33.29 12.0101H33.36C33.6875 11.8885 34.0213 11.7851 34.36 11.7001L34.86 11.5901H35.33C35.7096 11.5651 36.0905 11.5651 36.4701 11.5901H36.9001L37.36 11.6801C37.7 11.7607 38.0341 11.8643 38.36 11.9901L38.54 12.0501C38.74 12.1501 38.9401 12.2401 39.1301 12.3501C39.3201 12.4601 39.7 12.7001 39.98 12.8901L40.1901 13.0601L40.6601 13.5001C40.8801 13.7201 41.08 13.9501 41.27 14.1801L41.48 14.4801L41.7801 14.9701C41.8701 15.1301 41.96 15.3101 42.04 15.4801L42.1301 15.6601C42.2722 16.025 42.3891 16.3992 42.48 16.7801C42.48 16.9401 42.55 17.1001 42.58 17.2701C42.61 17.4401 42.58 17.5101 42.58 17.5801C42.61 18.0329 42.61 18.4873 42.58 18.9401C42.4397 19.515 42.4397 20.1152 42.58 20.6901C42.7381 21.0063 42.9439 21.2964 43.1901 21.5501C43.2859 21.6552 43.376 21.7654 43.46 21.8801C43.53 21.9701 43.5801 22.0701 43.6501 22.1701L46.99 20.7701C46.72 20.3301 46.4301 19.9001 46.1201 19.4901C46.3967 17.2093 45.8991 14.9017 44.707 12.9376C43.5149 10.9735 41.6975 9.46689 39.5465 8.65954C37.3955 7.85219 35.0356 7.79093 32.8456 8.48558C30.6556 9.18024 28.7625 10.5905 27.4701 12.4901C26.0788 14.5421 25.4816 17.0302 25.79 19.4901C23.7492 22.0498 22.7493 25.2853 22.99 28.5501L26.48 29.5501C26.5265 28.9897 26.5064 28.4258 26.42 27.8701Z" fill="#393D46"/>
</g>
</g>
</svg>
