<svg width="70" height="70" viewBox="0 0 70 70" fill="none" xmlns="http://www.w3.org/2000/svg">
<g id="whitebox">
<g id="Vector">
<path d="M57.8101 20.5399L34.3701 32.0399H36.1301L12.6501 20.4499V23.4499L35.9001 11.2199H34.1301L57.8201 23.5499C58.2251 23.7704 58.699 23.8279 59.145 23.7108C59.591 23.5938 59.9756 23.3109 60.2201 22.9199C60.4481 22.5165 60.5098 22.0402 60.3922 21.592C60.2745 21.1439 59.9868 20.7592 59.5901 20.5199L40.7701 10.7299C39.2201 9.91988 37.6801 9.07988 36.1201 8.30988C35.8267 8.11576 35.4873 8.00244 35.1362 7.98137C34.785 7.96031 34.4345 8.03223 34.1201 8.18988C33.7501 8.36988 33.3901 8.57988 33.0301 8.76988L30.61 10.0399L10.84 20.4499C10.5836 20.6073 10.3717 20.8278 10.2248 21.0904C10.0778 21.3531 10.0007 21.649 10.0007 21.9499C10.0007 22.2508 10.0778 22.5467 10.2248 22.8093C10.3717 23.0719 10.5836 23.2925 10.84 23.4499L29.6301 32.7299C31.1601 33.4799 32.6301 34.2599 34.2201 34.9899C34.5033 35.1516 34.8217 35.2416 35.1476 35.252C35.4735 35.2625 35.7971 35.1931 36.0901 35.0499C36.4701 34.8799 36.8401 34.6799 37.2101 34.4999L39.67 33.2899L59.55 23.5499C59.9468 23.3105 60.2345 22.9259 60.3522 22.4777C60.4698 22.0296 60.4081 21.5532 60.1801 21.1499C59.9331 20.77 59.5526 20.4966 59.1138 20.3836C58.675 20.2707 58.2098 20.3265 57.8101 20.5399Z" fill="#393D46"/>
<path d="M56.9399 22.05V47.37L57.7999 45.8601L34.3099 58.51L36.9399 60.0201C36.9399 51.2001 36.9666 42.3801 37.0199 33.5601L36.1499 35.07L59.6099 23.57C60.0066 23.3307 60.2944 22.9461 60.412 22.4979C60.5297 22.0498 60.4679 21.5734 60.2399 21.17C59.9954 20.7791 59.6109 20.4962 59.1649 20.3791C58.7189 20.262 58.245 20.3196 57.8399 20.54L34.3701 32.0399C34.103 32.1929 33.8813 32.4146 33.7284 32.6818C33.5755 32.949 33.4966 33.2522 33.4999 33.5601C33.4999 42.3801 33.4733 51.2001 33.4199 60.0201C33.4263 60.3252 33.5114 60.6235 33.6671 60.886C33.8227 61.1485 34.0436 61.3663 34.3083 61.5182C34.5729 61.6702 34.8723 61.7511 35.1775 61.7532C35.4827 61.7553 35.7832 61.6784 36.0499 61.53L59.5499 48.8801C59.8149 48.7271 60.0348 48.5069 60.1876 48.2418C60.3403 47.9767 60.4205 47.676 60.4199 47.37V22.05C60.4147 21.5875 60.2287 21.1454 59.9016 20.8184C59.5745 20.4913 59.1324 20.3052 58.6699 20.3C58.2117 20.3129 57.7761 20.502 57.4538 20.828C57.1316 21.154 56.9475 21.5917 56.9399 22.05Z" fill="#393D46"/>
<path d="M10 21.98C10 30.56 10 39.1433 10 47.73C9.99944 48.0348 10.0785 48.3344 10.2293 48.5993C10.3802 48.8641 10.5976 49.085 10.86 49.24L34.23 61.55C34.5017 61.7058 34.8098 61.7866 35.123 61.7844C35.4361 61.7822 35.7431 61.6969 36.0125 61.5373C36.2819 61.3776 36.5042 61.1494 36.6566 60.8758C36.809 60.6022 36.8861 60.2931 36.88 59.98L36.99 33.52C36.9913 33.2125 36.9116 32.9102 36.7588 32.6433C36.6061 32.3765 36.3858 32.1546 36.12 32L12.64 20.41C12.2367 20.1862 11.7629 20.1257 11.3163 20.2411C10.8697 20.3564 10.4844 20.6388 10.24 21.03C10.0094 21.4328 9.94619 21.91 10.064 22.3589C10.1819 22.8078 10.4713 23.1924 10.87 23.43L34.37 35.07L33.4999 33.5601L33.37 59.98L36 58.47C28.2467 54.39 20.4634 50.3 12.65 46.2L13.52 47.71C13.52 39.1233 13.52 30.54 13.52 21.96C13.5148 21.4975 13.3288 21.0554 13.0017 20.7283C12.6746 20.4012 12.2325 20.2152 11.77 20.21C11.3006 20.21 10.8504 20.3965 10.5184 20.7284C10.1865 21.0604 10 21.5106 10 21.98Z" fill="#393D46"/>
</g>
</g>
</svg>
