<svg width="20" height="20" viewBox="0 0 20 20" fill="none" xmlns="http://www.w3.org/2000/svg">
<g id="free-icon-balcony-7853084 1">
<path id="Vector" fill-rule="evenodd" clip-rule="evenodd" d="M9.99999 1.25C7.3392 1.25 5.18219 3.40701 5.18219 6.0678V10.7415H3.22034H2C1.58579 10.7415 1.25 11.0773 1.25 11.4915C1.25 11.9057 1.58579 12.2415 2 12.2415H2.47034V17.25H2C1.58579 17.25 1.25 17.5858 1.25 18C1.25 18.4142 1.58579 18.75 2 18.75H18C18.4142 18.75 18.75 18.4142 18.75 18C18.75 17.5858 18.4142 17.25 18 17.25H17.5297V12.2415H18C18.4142 12.2415 18.75 11.9057 18.75 11.4915C18.75 11.0773 18.4142 10.7415 18 10.7415H16.7797H14.8178V6.06781C14.8178 3.40783 12.6621 1.25132 10.0024 1.25M6.68219 10.7415V6.81781H13.3178V10.7415H11.356H8.64404H6.68219ZM10.75 5.31781H13.2327C12.9484 4.08769 11.9801 3.11939 10.75 2.83513V5.31781ZM9.25 5.31781V2.83512C8.01987 3.11937 7.05156 4.08768 6.76731 5.31781H9.25ZM12.106 12.2415H13.3178V17.25H12.106V12.2415ZM9.39404 17.25V12.2415H10.606V17.25H9.39404ZM6.68219 12.2415H7.89404V17.25H6.68219V12.2415ZM3.97034 12.2415H5.18219V17.25H3.97034V12.2415ZM16.0297 12.2415H14.8178V17.25H16.0297V12.2415Z" fill="#393D46"/>
</g>
</svg>
