<svg width="20" height="20" viewBox="0 0 20 20" fill="none" xmlns="http://www.w3.org/2000/svg">
<path fill-rule="evenodd" clip-rule="evenodd" d="M5.50408 19H2.56448L3.60032 13.9209H1V6.98413H2.65002C2.57774 6.77818 2.53843 6.5567 2.53843 6.32604V4.93465V4.27049H3.20248H3.71C3.54336 4.01408 3.25441 3.84452 2.92584 3.84452V2.51619C3.2549 2.51619 3.56754 2.58644 3.8496 2.71276C3.80252 2.49305 3.60725 2.32833 3.37352 2.32833V1C3.81041 1 4.21125 1.15439 4.52447 1.4116C4.83769 1.15439 5.23853 1 5.67542 1V2.32833C5.44168 2.32833 5.24642 2.49305 5.19933 2.71276C5.4814 2.58644 5.79405 2.51619 6.12311 2.51619V3.84452C5.79455 3.84452 5.5056 4.01408 5.33895 4.27049H5.84651H6.51056V4.93465V6.32604C6.51056 6.5567 6.47125 6.77818 6.39897 6.98413H16.4488V3.16922C16.4488 2.70483 16.0724 2.32833 15.608 2.32833C15.2977 2.32833 15.0267 2.49647 14.881 2.74663C15.5089 3.03979 15.9439 3.67691 15.9439 4.41567V5.01456V5.67873H15.2799H12.9266H12.2625V5.01456V4.41567C12.2625 3.61204 12.7774 2.92872 13.4951 2.67754C13.7178 1.71637 14.5793 1 15.608 1C16.8059 1 17.7769 1.9712 17.7769 3.16922V6.98413H19V13.9209H16.4149L17.4508 19H14.5112L12.9233 13.9209H7.09191L5.50408 19ZM15.8244 17.6717L15.0595 13.9209H14.3149L15.4874 17.6717H15.8244ZM5.7004 13.9209L4.52783 17.6717H4.19083L4.95577 13.9209H5.7004ZM2.3281 12.5926V8.31246H17.6719V12.5926H2.3281ZM2.91644 11.0627H17.0829V9.73436H2.91644V11.0627ZM4.52449 6.98408C4.16108 6.98408 3.86653 6.68946 3.86653 6.32604V5.59882H5.18246V6.32604C5.18246 6.68945 4.88788 6.98408 4.52449 6.98408ZM13.5948 4.3504C13.6268 4.0981 13.8422 3.90302 14.1032 3.90302C14.3642 3.90302 14.5796 4.09808 14.6117 4.3504H13.5948Z" fill="#393D46"/>
</svg>
