<svg width="20" height="20" viewBox="0 0 20 20" fill="none" xmlns="http://www.w3.org/2000/svg">
<path fill-rule="evenodd" clip-rule="evenodd" d="M3.25 3C3.25 2.58579 3.58579 2.25 4 2.25H16C16.4142 2.25 16.75 2.58579 16.75 3V7C16.75 7.41421 16.4142 7.75 16 7.75H4C3.58579 7.75 3.25 7.41421 3.25 7V3ZM4.75 3.75V6.25H15.25V3.75H4.75ZM2 4.25C2.41421 4.25 2.75 4.58579 2.75 5V9.25H10C10.4142 9.25 10.75 9.58579 10.75 10V18C10.75 18.4142 10.4142 18.75 10 18.75C9.58579 18.75 9.25 18.4142 9.25 18V10.75H2C1.58579 10.75 1.25 10.4142 1.25 10V5C1.25 4.58579 1.58579 4.25 2 4.25ZM15.6174 9.5742L15 10L14.3826 9.5742C14.5226 9.37121 14.7534 9.25 15 9.25C15.2466 9.25 15.4774 9.37121 15.6174 9.5742ZM15 11.3782C14.8876 11.56 14.7681 11.758 14.6489 11.9636C14.4056 12.3833 14.1708 12.8221 13.9991 13.2127C13.8137 13.6344 13.75 13.8956 13.75 14C13.75 14.3315 13.8817 14.6494 14.1161 14.8839C14.3506 15.1183 14.6685 15.25 15 15.25C15.3315 15.25 15.6494 15.1183 15.8839 14.8839C16.1183 14.6494 16.25 14.3315 16.25 14C16.25 13.8956 16.1863 13.6344 16.0009 13.2127C15.8292 12.8221 15.5944 12.3833 15.3511 11.9636C15.2319 11.758 15.1124 11.56 15 11.3782ZM15 10C14.3826 9.5742 14.3826 9.57412 14.3826 9.5742L14.3805 9.57717L14.3756 9.58431L14.3576 9.61066C14.3421 9.63345 14.3197 9.6665 14.2914 9.70867C14.2348 9.79297 14.1545 9.91389 14.0583 10.0622C13.8663 10.3581 13.6093 10.7661 13.3511 11.2114C13.0944 11.6542 12.8292 12.1466 12.6259 12.6091C12.4363 13.0406 12.25 13.5544 12.25 14C12.25 14.7293 12.5397 15.4288 13.0555 15.9445C13.5712 16.4603 14.2707 16.75 15 16.75C15.7293 16.75 16.4288 16.4603 16.9445 15.9445C17.4603 15.4288 17.75 14.7293 17.75 14C17.75 13.5544 17.5637 13.0406 17.3741 12.6091C17.1708 12.1466 16.9056 11.6542 16.6489 11.2114C16.3907 10.7661 16.1337 10.3581 15.9417 10.0622C15.8455 9.91389 15.7652 9.79297 15.7086 9.70867C15.6803 9.6665 15.6579 9.63345 15.6424 9.61066L15.6244 9.58431L15.6195 9.57717L15.6181 9.57516C15.618 9.57508 15.6174 9.5742 15 10Z" fill="#393D46"/>
</svg>
