<svg width="20" height="20" viewBox="0 0 20 20" fill="none" xmlns="http://www.w3.org/2000/svg">
<path d="M17.8037 13.4882L12.9362 10.6064C12.2525 10.2016 11.4919 9.94472 10.705 9.84809V9.12626C10.705 8.7196 10.9417 8.34105 11.3225 8.13819C12.2687 7.63422 12.8258 6.66358 12.7762 5.60496C12.7107 4.20279 11.5588 3.0674 10.1322 3.00294C8.53305 2.93117 7.22458 4.18414 7.22458 5.73321C7.22458 6.11541 7.53947 6.42518 7.9277 6.42518C8.31607 6.42518 8.63083 6.11541 8.63083 5.73321C8.63083 4.96719 9.27779 4.34956 10.0676 4.38537C10.7666 4.417 11.3394 4.98071 11.3715 5.66861C11.3961 6.19218 11.1207 6.67209 10.653 6.92117C9.81776 7.36608 9.2988 8.21103 9.2988 9.12626V9.84769C8.5152 9.94337 7.75742 10.1981 7.07558 10.5997L2.20122 13.4704C1.46143 13.9061 1.00096 14.7039 1 15.5525C0.998493 16.8953 2.10138 17.9834 3.46602 17.985L16.5281 18H16.5311C17.8911 18 18.9984 16.9118 19 15.573C19.001 14.7245 18.5426 13.9255 17.8037 13.4882ZM16.5281 16.5H3.5C2.91388 16.4993 2.20122 15.8594 2.5 15.5C2.5 15.5 2.68153 15.1876 3 15L7.9277 12C9.28616 11.1999 10.642 11.1961 12 12L17 15C17.3179 15.1883 17.594 15.3945 17.5937 15.5714C17.5931 16.1476 17.1135 16.5 16.5281 16.5Z" fill="#393D46"/>
</svg>
