<svg width="20" height="20" viewBox="0 0 20 20" fill="none" xmlns="http://www.w3.org/2000/svg">
<g id="highCeiling">
<path id="Vector" fill-rule="evenodd" clip-rule="evenodd" d="M1.25 2C1.25 1.58579 1.58579 1.25 2 1.25H9.5H17C17.4142 1.25 17.75 1.58579 17.75 2V9.5V17C17.75 17.4142 17.4142 17.75 17 17.75H9.5H2C1.58579 17.75 1.25 17.4142 1.25 17V9.5V2ZM16.25 16.25H9.5H2.75V9.5V2.75H9.5H16.25V9.5V16.25ZM10.0453 4.48503C9.90358 4.33502 9.70635 4.25 9.5 4.25C9.29365 4.25 9.09642 4.33502 8.95474 4.48503L6.45474 7.13209C6.17033 7.43323 6.18389 7.90791 6.48503 8.19232C6.78617 8.47673 7.26085 8.46317 7.54526 8.16203L8.75 6.88642V12.1136L7.54526 10.838C7.26085 10.5368 6.78617 10.5233 6.48503 10.8077C6.18389 11.0921 6.17033 11.5668 6.45474 11.8679L8.95474 14.515C9.09642 14.665 9.29365 14.75 9.5 14.75C9.70635 14.75 9.90358 14.665 10.0453 14.515L12.5453 11.8679C12.8297 11.5668 12.8161 11.0921 12.515 10.8077C12.2138 10.5233 11.7391 10.5368 11.4547 10.838L10.25 12.1136V6.88642L11.4547 8.16203C11.7391 8.46317 12.2138 8.47673 12.515 8.19232C12.8161 7.90791 12.8297 7.43323 12.5453 7.13209L10.0453 4.48503Z" fill="#393D46"/>
</g>
</svg>
