<svg width="20" height="20" viewBox="0 0 20 20" fill="none" xmlns="http://www.w3.org/2000/svg">
<g id="laundry">
<path id="Vector" d="M16.3289 2H3.47185C3.21083 2 3 2.21083 3 2.47185V18.5282C3 18.7892 3.21083 19 3.47185 19H16.3323C16.5933 19 16.8041 18.7892 16.8041 18.5282V2.47185C16.8041 2.21083 16.59 2 16.3289 2ZM15.2982 17.5833H4.5V7.36012H15.2982V17.5833ZM15.2982 6.05591H4.5V3.41667H15.2982V6.05591Z" fill="#393D46"/>
<path id="Vector_2" d="M5.3593 5.1937H5.56678C5.8278 5.1937 6.03863 4.98287 6.03863 4.72185C6.03863 4.46083 5.8278 4.25 5.56678 4.25H5.3593C5.09828 4.25 4.88745 4.46083 4.88745 4.72185C4.88745 4.98287 5.09828 5.1937 5.3593 5.1937Z" fill="#393D46"/>
<path id="Vector_3" d="M7.24663 5.1937H7.45411C7.71513 5.1937 7.92596 4.98287 7.92596 4.72185C7.92596 4.46083 7.71513 4.25 7.45411 4.25H7.24663C6.98561 4.25 6.77478 4.46083 6.77478 4.72185C6.77478 4.98287 6.98561 5.1937 7.24663 5.1937Z" fill="#393D46"/>
<path id="Vector_4" d="M14.2341 5.1937H14.4415C14.7026 5.1937 14.9134 4.98287 14.9134 4.72185C14.9134 4.46083 14.7026 4.25 14.4415 4.25H14.2341C13.973 4.25 13.7622 4.46083 13.7622 4.72185C13.7622 4.98287 13.973 5.1937 14.2341 5.1937Z" fill="#393D46"/>
<path id="Vector_5" fill-rule="evenodd" clip-rule="evenodd" d="M10 10C8.61929 10 7.5 11.1193 7.5 12.5C7.5 13.8807 8.61929 15 10 15C11.3807 15 12.5 13.8807 12.5 12.5C12.5 11.1193 11.3807 10 10 10ZM6 12.5C6 10.2909 7.79086 8.5 10 8.5C12.2091 8.5 14 10.2909 14 12.5C14 14.7091 12.2091 16.5 10 16.5C7.79086 16.5 6 14.7091 6 12.5Z" fill="#393D46"/>
</g>
</svg>
