<svg width="20" height="20" viewBox="0 0 20 20" fill="none" xmlns="http://www.w3.org/2000/svg">
<g id="livingKitchen">
<g id="Vector">
<path fill-rule="evenodd" clip-rule="evenodd" d="M1.73189 19C1.32768 19 1 18.6723 1 18.2681V12.0928C1 11.6885 1.32768 11.3609 1.73189 11.3609H10.6747V4.54511C10.6747 4.51985 10.676 4.49488 10.6785 4.47028C10.716 4.10122 11.0277 3.81322 11.4066 3.81322H18.2681C18.6723 3.81322 19 4.1409 19 4.54511V18.2681C19 18.6723 18.6723 19 18.2681 19H1.73189ZM2.46379 17.5362H9.3939V12.8247H2.46379V17.5362ZM10.6747 12.8247H9.3939V17.5362H10.6747V12.8247ZM12.1385 10.7662V17.5362H17.5362V10.7662H12.1385ZM12.1385 9.30241V5.277H17.5362V9.30241H12.1385Z" fill="#393D46"/>
<path d="M6.60356 16.4269C7.00777 16.4269 7.33545 16.0993 7.33545 15.695V14.6658C7.33545 14.2616 7.00777 13.9339 6.60356 13.9339C6.19934 13.9339 5.87166 14.2616 5.87166 14.6658V15.695C5.87166 16.0993 6.19934 16.4269 6.60356 16.4269Z" fill="#393D46"/>
<path d="M14.1969 13.122C14.1969 13.5262 13.8693 13.8539 13.4651 13.8539C13.0608 13.8539 12.7332 13.5262 12.7332 13.122V12.0928C12.7332 11.6885 13.0608 11.3609 13.4651 11.3609C13.8693 11.3609 14.1969 11.6885 14.1969 12.0928V13.122Z" fill="#393D46"/>
<path d="M13.4651 8.70775C13.8693 8.70775 14.1969 8.38007 14.1969 7.97586V6.94663C14.1969 6.54242 13.8693 6.21474 13.4651 6.21474C13.0608 6.21474 12.7332 6.54242 12.7332 6.94663V7.97586C12.7332 8.38007 13.0608 8.70775 13.4651 8.70775Z" fill="#393D46"/>
<path fill-rule="evenodd" clip-rule="evenodd" d="M1.73189 8.29606C1.32768 8.29606 1 7.96838 1 7.56417V6.19187C1 5.97821 1.09336 5.77522 1.25558 5.63617L3.40152 3.79679V1.73189C3.40152 1.32768 3.7292 1 4.13342 1H6.87802C7.28223 1 7.60991 1.32768 7.60991 1.73189V3.7968L9.75585 5.63617C9.91807 5.77522 10.0114 5.97821 10.0114 6.19187V7.56417C10.0114 7.96838 9.68376 8.29606 9.27954 8.29606H1.73189ZM6.60727 4.86531H4.40416L2.46379 6.52849V6.83227H8.54765V6.52849L6.60727 4.86531ZM4.86531 2.46379V3.40152H6.14612V2.46379H4.86531Z" fill="#393D46"/>
</g>
</g>
</svg>
