<svg width="20" height="20" viewBox="0 0 20 20" fill="none" xmlns="http://www.w3.org/2000/svg">
<g id="loggia">
<path id="Vector" fill-rule="evenodd" clip-rule="evenodd" d="M3.60294 3.42648C3.60294 3.01226 3.93872 2.67648 4.35294 2.67648H6.29321H9.99999H14.5756H15.6471C16.0613 2.67648 16.3971 3.01226 16.3971 3.42648V9.07354V13.9706H18C18.4142 13.9706 18.75 14.3064 18.75 14.7206V17.0735C18.75 17.4877 18.4142 17.8235 18 17.8235H2C1.58579 17.8235 1.25 17.4877 1.25 17.0735V14.7206C1.25 14.3064 1.58579 13.9706 2 13.9706H3.60294V9.07354V3.42648ZM10 15.4706H15.6471H17.25V16.3235H2.75V15.4706H4.35294H10ZM14.8971 13.9706H10.75V9.82354H14.8971V13.9706ZM14.8971 8.32354H10.75V4.17648H14.5756H14.8971V8.32354ZM9.25 8.32354V4.17648H6.29321H5.10294V8.32354H9.25ZM5.10294 9.82354V13.9706H9.25V9.82354H5.10294Z" fill="#393D46"/>
</g>
</svg>
