<svg width="20" height="20" viewBox="0 0 20 20" fill="none" xmlns="http://www.w3.org/2000/svg">
<g id="masterBedroom">
<g id="Vector">
<path d="M18.4474 15.9836H1.55264C1.36594 15.9836 1.18689 15.9094 1.05488 15.7774C0.922864 15.6454 0.848694 15.4663 0.848694 15.2796V13.1678C0.848694 12.9811 0.922864 12.802 1.05488 12.67C1.18689 12.538 1.36594 12.4638 1.55264 12.4638H18.4474C18.6341 12.4638 18.8131 12.538 18.9451 12.67C19.0772 12.802 19.1513 12.9811 19.1513 13.1678V15.2796C19.1513 15.4663 19.0772 15.6454 18.9451 15.7774C18.8131 15.9094 18.6341 15.9836 18.4474 15.9836ZM2.25659 14.5757H17.7434V13.8717H2.25659V14.5757Z" fill="#393D46"/>
<path d="M18.4474 15.9836H1.55264C1.36594 15.9836 1.18689 15.9094 1.05488 15.7774C0.922864 15.6454 0.848694 15.4663 0.848694 15.2796V11.0559C0.848694 10.4958 1.07119 9.9587 1.46724 9.56262C1.86329 9.16657 2.40044 8.94408 2.96054 8.94408H17.0395C17.5996 8.94408 18.1367 9.16657 18.5328 9.56262C18.9288 9.9587 19.1513 10.4958 19.1513 11.0559V15.2796C19.1513 15.4663 19.0772 15.6454 18.9451 15.7774C18.8131 15.9094 18.6341 15.9836 18.4474 15.9836ZM2.25659 14.5757H17.7434V11.0559C17.7434 10.8692 17.6693 10.6902 17.5372 10.5582C17.4052 10.4261 17.2262 10.352 17.0395 10.352H2.96054C2.77384 10.352 2.59479 10.4261 2.46277 10.5582C2.33075 10.6902 2.25659 10.8692 2.25659 11.0559V14.5757Z" fill="#393D46"/>
<path d="M17.0395 10.352H2.96054C2.77384 10.352 2.59479 10.2778 2.46277 10.1458C2.33076 10.0138 2.25659 9.8347 2.25659 9.64803V5.42434C2.25659 4.86425 2.47909 4.32709 2.87514 3.93104C3.27118 3.535 3.80834 3.3125 4.36843 3.3125H15.6316C16.1917 3.3125 16.7288 3.535 17.1249 3.93104C17.5209 4.32709 17.7434 4.86425 17.7434 5.42434V9.64803C17.7434 9.8347 17.6693 10.0138 17.5373 10.1458C17.4052 10.2778 17.2262 10.352 17.0395 10.352ZM3.66449 8.94408H16.3355V5.42434C16.3355 5.23764 16.2614 5.05859 16.1294 4.92658C15.9973 4.79456 15.8183 4.72039 15.6316 4.72039H4.36843C4.18174 4.72039 4.00268 4.79456 3.87067 4.92658C3.73865 5.05859 3.66449 5.23764 3.66449 5.42434V8.94408Z" fill="#393D46"/>
<path d="M17.0395 14.5757H16.3355C15.9468 14.5757 15.6316 14.8908 15.6316 15.2796V15.9836C15.6316 16.3723 15.9468 16.6875 16.3355 16.6875H17.0395C17.4283 16.6875 17.7434 16.3723 17.7434 15.9836V15.2796C17.7434 14.8908 17.4283 14.5757 17.0395 14.5757Z" fill="#393D46"/>
<path d="M3.66449 14.5757H2.96054C2.57176 14.5757 2.25659 14.8908 2.25659 15.2796V15.9836C2.25659 16.3723 2.57176 16.6875 2.96054 16.6875H3.66449C4.05327 16.6875 4.36843 16.3723 4.36843 15.9836V15.2796C4.36843 14.8908 4.05327 14.5757 3.66449 14.5757Z" fill="#393D46"/>
<path d="M7.88818 10.352H6.48028C6.10689 10.352 5.74878 10.2036 5.48475 9.9396C5.22072 9.67558 5.07239 9.31748 5.07239 8.94408V8.24013C5.07239 7.86674 5.22072 7.50863 5.48475 7.2446C5.74878 6.98057 6.10689 6.83224 6.48028 6.83224H7.88818C8.26157 6.83224 8.61968 6.98057 8.88371 7.2446C9.14774 7.50863 9.29607 7.86674 9.29607 8.24013V8.94408C9.29607 9.31748 9.14774 9.67558 8.88371 9.9396C8.61968 10.2036 8.26157 10.352 7.88818 10.352ZM6.48028 8.24013V8.94408H7.88818V8.24013H6.48028Z" fill="#393D46"/>
<path d="M13.5198 10.352H12.1119C11.7385 10.352 11.3804 10.2036 11.1163 9.9396C10.8523 9.67558 10.704 9.31748 10.704 8.94408V8.24013C10.704 7.86674 10.8523 7.50863 11.1163 7.2446C11.3804 6.98057 11.7385 6.83224 12.1119 6.83224H13.5198C13.8932 6.83224 14.2513 6.98057 14.5153 7.2446C14.7793 7.50863 14.9277 7.86674 14.9277 8.24013V8.94408C14.9277 9.31748 14.7793 9.67558 14.5153 9.9396C14.2513 10.2036 13.8932 10.352 13.5198 10.352ZM12.1119 8.24013V8.94408H13.5198V8.24013H12.1119Z" fill="#393D46"/>
</g>
</g>
</svg>
