<svg width="20" height="20" viewBox="0 0 20 20" fill="none" xmlns="http://www.w3.org/2000/svg">
<g id="notfirstfloor">
<g id="Vector">
<path d="M16.8564 10.8722H14.1851C13.7968 10.8722 13.482 11.1869 13.482 11.5753C13.482 11.9636 13.7968 12.2784 14.1851 12.2784H15.1595L11.7866 15.6512C11.512 15.9258 11.512 16.371 11.7866 16.6456C12.0612 16.9201 12.5063 16.9202 12.7809 16.6456L16.1539 13.2728V14.2471C16.1539 14.6355 16.4687 14.9502 16.857 14.9502C17.2453 14.9502 17.5601 14.6355 17.5601 14.2471V11.5753C17.5599 11.1932 17.2494 10.8719 16.8564 10.8722Z" fill="#393D46"/>
<path d="M18.2969 3H14.1485C13.7601 3 13.4453 3.31479 13.4453 3.70312V7.14844H10C9.61173 7.14844 9.29691 7.46323 9.29691 7.85156V11.2969H5.8516C5.46326 11.2969 5.14847 11.6117 5.14847 12V15.4453H1.70312C1.31479 15.4453 1 15.7601 1 16.1485C1 16.5368 1.31479 16.8516 1.70312 16.8516H5.8516C6.03807 16.8516 6.21694 16.7775 6.34878 16.6456C6.48065 16.5138 6.55472 16.3349 6.55472 16.1485L6.55469 12.7031H10C10.1865 12.7031 10.3654 12.6291 10.4972 12.4972C10.6291 12.3654 10.7032 12.1865 10.7032 12L10.7031 8.55469H14.1484C14.3349 8.55469 14.5138 8.48061 14.6456 8.34874C14.7775 8.2169 14.8516 8.03803 14.8516 7.85156L14.8515 4.40625H18.2969C18.6852 4.40625 19 4.09146 19 3.70312C19 3.31479 18.6852 3 18.2969 3Z" fill="#393D46"/>
</g>
</g>
</svg>
