<svg width="20" height="20" viewBox="0 0 20 20" fill="none" xmlns="http://www.w3.org/2000/svg">
<g id="oknaNa2Storony">
<path id="Vector" fill-rule="evenodd" clip-rule="evenodd" d="M2.49364 1.90039C2.19494 1.90039 1.89624 2.20413 1.89624 2.50788V5.77311C1.89624 6.07685 2.12027 6.3806 2.49364 6.3806C2.86702 6.3806 3.09105 6.15279 3.09105 5.77311V3.87472L4.59575 5.49974C4.81978 5.72755 5.27157 5.72755 5.49559 5.49974C5.71962 5.27193 5.71962 4.82771 5.49559 4.5999L3.8378 3.03943H5.70468C6.00338 3.03943 6.30209 2.81162 6.30209 2.43194C6.30209 2.05226 6.00338 1.90039 5.70468 1.90039H2.49364ZM17.4026 18.0785C17.7013 18.0785 18 17.7747 18 17.471V14.2058C18 13.902 17.7759 13.5983 17.4026 13.5983C17.0292 13.5983 16.8052 13.8261 16.8052 14.2058V16.1042L15.3005 14.4791C15.0764 14.2513 14.6247 14.2513 14.4006 14.4791C14.1766 14.7069 14.1766 15.1512 14.4006 15.379L16.0584 16.9394H14.1915C13.8928 16.9394 13.5941 17.1673 13.5941 17.5469C13.5941 17.9266 13.8928 18.0785 14.1915 18.0785H17.4026ZM10.1635 4.98683C8.25134 4.98683 6.67663 5.83043 5.43935 6.78651C4.20207 7.74259 3.35848 8.86738 2.9648 9.42978C2.79608 9.5985 2.73984 9.82346 2.73984 10.0484C2.79608 10.7795 4.53951 12.523 5.43935 13.3103C6.67663 14.2664 8.25134 15.11 10.1635 15.11C12.0757 15.11 13.6504 14.2664 14.8876 13.3103C16.1249 12.3543 17.0248 11.2295 17.4184 10.6671C17.5872 10.4983 17.6434 10.2734 17.6434 10.0484C17.6434 9.82346 17.5309 9.5985 17.4184 9.42978C17.3784 9.37969 17.3352 9.32513 17.2888 9.26663C16.8151 8.66832 16.0146 7.65732 14.8876 6.78651C13.6504 5.83043 12.0757 4.98683 10.1635 4.98683ZM4.07972 9.94695C4.44671 9.44375 5.18068 8.538 6.22922 7.73288C7.27776 6.92776 8.64086 6.2736 10.1612 6.2736C11.6816 6.2736 13.0447 6.92776 14.0933 7.73288C15.1418 8.538 15.9282 9.44375 16.2952 9.94695C16.3476 9.99727 16.3476 10.0476 16.3476 10.0979C16.3476 10.1482 16.3476 10.1986 16.2952 10.2489C15.9282 10.7521 15.1418 11.6578 14.0933 12.4629C13.0447 13.2681 11.6816 13.9222 10.1612 13.9222C8.64086 13.9222 7.27776 13.2681 6.22922 12.4629C5.18068 11.6578 4.39428 10.7521 4.02729 10.2489C3.97486 10.1986 3.97486 10.1482 3.97486 10.0979C4.00108 10.0728 4.01418 10.0476 4.02729 10.0224C4.0404 9.99727 4.0535 9.97211 4.07972 9.94695ZM12.5818 10.0124C12.5818 11.317 11.5243 12.3745 10.2197 12.3745C8.9152 12.3745 7.85767 11.317 7.85767 10.0124C7.85767 8.70789 8.9152 7.65035 10.2197 7.65035C11.5243 7.65035 12.5818 8.70789 12.5818 10.0124Z" fill="#393D46"/>
</g>
</svg>
