<svg width="20" height="20" viewBox="0 0 20 20" fill="none" xmlns="http://www.w3.org/2000/svg">
<g id="panoramnoeOsteklenie">
<path id="Vector" fill-rule="evenodd" clip-rule="evenodd" d="M1.25 2C1.25 1.58579 1.58579 1.25 2 1.25H5.80769H9.5H14.0577H17C17.4142 1.25 17.75 1.58579 17.75 2V9.5V17C17.75 17.4142 17.4142 17.75 17 17.75H9.5H2C1.58579 17.75 1.25 17.4142 1.25 17V9.5V2ZM16.25 16.25H10.25V10.25H16.25V16.25ZM16.25 8.75H10.25V2.75H14.0577H16.25V8.75ZM8.75 8.75V2.75H5.80769H2.75V8.75H8.75ZM2.75 10.25V16.25H8.75V10.25H2.75Z" fill="#393D46"/>
</g>
</svg>
