<svg width="20" height="20" viewBox="0 0 20 20" fill="none" xmlns="http://www.w3.org/2000/svg">
<g id="patio">
<path id="Vector" fill-rule="evenodd" clip-rule="evenodd" d="M9.5 1.25C7.65895 1.25 5.88493 1.94007 4.53824 3.18316C3.19123 4.42656 2.37253 6.13053 2.25165 7.95029C2.23789 8.15738 2.31057 8.36091 2.45238 8.51245C2.59419 8.664 2.79246 8.75 3 8.75H8.79102V9V12.25H7H6.75V11.5V10.75H5.25V11.5V15.5V17.5V18.25H6.75V17.5V15.5V13.75H7H8.79102V17.5V18.25H10.291V17.5V13.75H12H12.25V15.5V17.5V18.25H13.75V17.5V15.5V11.5V10.75H12.25V11.5V12.25H12H10.291V9V8.75H16C16.2075 8.75 16.4058 8.664 16.5476 8.51245C16.6894 8.36091 16.7621 8.15738 16.7484 7.95029C16.6275 6.13053 15.8088 4.42656 14.4618 3.18316C13.1151 1.94007 11.3411 1.25 9.5 1.25ZM5.55566 4.28537C6.62318 3.29997 8.03318 2.75 9.5 2.75C10.9668 2.75 12.3768 3.29997 13.4443 4.28537C14.3103 5.08469 14.8982 6.12169 15.14 7.25H3.86002C4.10182 6.12169 4.68973 5.08469 5.55566 4.28537ZM15.25 10.75V11.5V15.5V17.5V18.25H16.75V17.5V15.5V11.5V10.75H15.25ZM2.25 11.5V10.75H3.75V11.5V15.5V17.5V18.25H2.25V17.5V15.5V11.5Z" fill="#393D46"/>
</g>
</svg>
