<svg width="20" height="20" viewBox="0 0 20 20" fill="none" xmlns="http://www.w3.org/2000/svg">
<g id="plan 1">
<path id="Vector (Stroke)" fill-rule="evenodd" clip-rule="evenodd" d="M1.375 3.375H18.625V16.6217H1.375V3.375ZM2.625 4.625V9.375H4.00166V10.625H2.625V12.8722H6.70612V10.625H5.32946V9.375H9.3361V10.625H7.95612V15.3717H12.0406V14.1602H13.2906V15.3717H14.7061V10.625H13.2906V12.8309H12.0406V10.625H10.6639V9.375H12.0406V6.87224H17.375V4.625H13.2906V5.67403H12.0406V4.625H7.95612V8.17348H6.70612V4.625H2.625ZM17.375 8.12224H13.2906V9.375H17.375V8.12224ZM17.375 10.625H15.9561V15.3717H17.375V10.625ZM6.70612 15.3717V14.1222H2.625V15.3717H6.70612Z" fill="#393D46"/>
</g>
</svg>
