<svg width="20" height="20" viewBox="0 0 20 20" fill="none" xmlns="http://www.w3.org/2000/svg">
<g id="roomOnEast">
<path id="Vector (Stroke)" fill-rule="evenodd" clip-rule="evenodd" d="M7.2011 1.41128C7.46948 1.22648 7.82647 1.2361 8.08449 1.4351L18.4572 9.43501C18.6414 9.57701 18.7492 9.79638 18.7492 10.0289C18.7492 10.2614 18.6414 10.4808 18.4572 10.6228L8.08449 18.6227C7.82647 18.8217 7.46948 18.8313 7.2011 18.6465C6.93273 18.4617 6.81438 18.1248 6.90826 17.8127L9.24999 10.0289L6.90826 2.24506C6.81438 1.93303 6.93273 1.59608 7.2011 1.41128ZM9.01733 4.04884L10.7514 9.81283C10.7938 9.95376 10.7938 10.104 10.7514 10.245L9.01733 16.009L16.7711 10.0289L9.01733 4.04884ZM1.75 7.5C1.75 7.08579 2.08579 6.75 2.5 6.75H6C6.41421 6.75 6.75 7.08579 6.75 7.5C6.75 7.91422 6.41421 8.25 6 8.25H3.25V9.25H6C6.41421 9.25 6.75 9.58579 6.75 10C6.75 10.4142 6.41421 10.75 6 10.75H3.25V11.75H6C6.41421 11.75 6.75 12.0858 6.75 12.5C6.75 12.9142 6.41421 13.25 6 13.25H2.5C2.08579 13.25 1.75 12.9142 1.75 12.5V7.5Z" fill="#393D46"/>
</g>
</svg>
