<svg width="20" height="20" viewBox="0 0 20 20" fill="none" xmlns="http://www.w3.org/2000/svg">
<g id="roomOnNorth">
<path id="Vector (Stroke)" fill-rule="evenodd" clip-rule="evenodd" d="M9.99991 1.25122C10.2324 1.25122 10.4518 1.35907 10.5938 1.54319L18.5937 11.916C18.7927 12.174 18.8023 12.531 18.6175 12.7994C18.4327 13.0677 18.0958 13.1861 17.7837 13.0922L9.99991 10.7504L2.21607 13.0922C1.90404 13.1861 1.56709 13.0677 1.38229 12.7994C1.19748 12.531 1.20711 12.174 1.40611 11.916L9.40602 1.54319C9.54802 1.35907 9.76739 1.25122 9.99991 1.25122ZM4.01984 10.9831L9.78384 9.24904C9.92477 9.20664 10.0751 9.20664 10.216 9.24904L15.98 10.9831L9.99991 3.2293L4.01984 10.9831ZM7.74265 12.5498C8.03853 12.4418 8.3704 12.5301 8.57341 12.7709L11.2499 15.9464V13.2543C11.2499 12.8401 11.5857 12.5043 11.9999 12.5043C12.4141 12.5043 12.7499 12.8401 12.7499 13.2543V18C12.7499 18.315 12.5531 18.5964 12.2572 18.7045C11.9613 18.8125 11.6294 18.7242 11.4264 18.4834L8.74994 15.3079V18C8.74994 18.4142 8.41415 18.75 7.99994 18.75C7.58573 18.75 7.24994 18.4142 7.24994 18V13.2543C7.24994 12.9393 7.44677 12.6579 7.74265 12.5498Z" fill="#393D46"/>
</g>
</svg>
