<svg width="20" height="20" viewBox="0 0 20 20" fill="none" xmlns="http://www.w3.org/2000/svg">
<g id="roominWest">
<path id="Vector" fill-rule="evenodd" clip-rule="evenodd" d="M13.1185 18.1278C13.2033 18.4095 13.0964 18.7137 12.8541 18.8806C12.6118 19.0474 12.2894 19.0387 12.0564 18.8591L1.26363 10.5362C1.09738 10.408 1 10.2099 1 10C1 9.79008 1.09738 9.59203 1.26363 9.46382L12.0564 1.14094C12.2894 0.96128 12.6118 0.952588 12.8541 1.11943C13.0964 1.28628 13.2033 1.59048 13.1185 1.87219L10.673 10L13.1185 18.1278ZM11.2142 3.50067L2.78606 10L11.2142 16.4993L9.31732 10.1951C9.27903 10.0678 9.27903 9.93216 9.31732 9.80493L11.2142 3.50067ZM15.068 12.7643C14.9541 13.0377 14.6757 13.2053 14.3808 13.1782C14.0858 13.151 13.8428 12.9353 13.7807 12.6458L12.7226 7.70847C12.6442 7.34281 12.8772 6.98287 13.2429 6.90451C13.6086 6.82616 13.9686 7.05906 14.0469 7.42472L14.6511 10.2438L15.2286 8.85789C15.3338 8.60557 15.5803 8.44121 15.8537 8.44121C16.1271 8.44121 16.3737 8.60557 16.4788 8.85789L17.0563 10.2438L17.6605 7.42472C17.7389 7.05906 18.0989 6.82616 18.4646 6.90451C18.8303 6.98287 19.0632 7.34281 18.9848 7.70847L17.9267 12.6458C17.8646 12.9353 17.6216 13.151 17.3267 13.1782C17.0317 13.2053 16.7534 13.0377 16.6394 12.7643L15.8537 10.8788L15.068 12.7643Z" fill="#393D46"/>
</g>
</svg>
