<svg width="20" height="20" viewBox="0 0 20 20" fill="none" xmlns="http://www.w3.org/2000/svg">
<g id="roomOnSouth">
<path id="Vector" fill-rule="evenodd" clip-rule="evenodd" d="M10.5857 18.4685C10.4433 18.6464 10.2278 18.75 10 18.75C9.77216 18.75 9.55668 18.6464 9.41435 18.4685L1.41435 8.46852C1.21012 8.21323 1.19478 7.85506 1.37645 7.58325C1.55812 7.31143 1.89492 7.18862 2.20892 7.27968L10 9.53935L17.7911 7.27968C18.1051 7.18862 18.4419 7.31143 18.6236 7.58325C18.8052 7.85506 18.7899 8.21323 18.5857 8.46852L10.5857 18.4685ZM9.79109 11.0406L4.06413 9.37957L10 16.7994L15.9359 9.37957L10.2089 11.0406C10.0725 11.0802 9.92755 11.0802 9.79109 11.0406ZM10 7.75C9.04484 7.75 8.03724 7.39763 7.53533 6.67974C7.29799 6.34027 7.38078 5.87267 7.72026 5.63533C8.05973 5.39799 8.52733 5.48078 8.76467 5.82026C8.88006 5.9853 9.31496 6.25 10 6.25C10.4342 6.25 10.7917 6.13851 11.0167 5.99789C11.1277 5.92852 11.1904 5.8624 11.2217 5.81623C11.25 5.77436 11.25 5.75378 11.25 5.74987C11.25 5.74597 11.25 5.72566 11.2217 5.68379C11.1904 5.63762 11.1277 5.5715 11.0167 5.50212C10.7917 5.36149 10.4342 5.25 10 5.25C9.32963 5.25 8.68714 5.08168 8.18828 4.76989C7.69998 4.4647 7.25 3.94708 7.25 3.25C7.25 2.55293 7.69998 2.03531 8.18827 1.73013C8.68713 1.41833 9.32962 1.25 10 1.25C10.9284 1.25 11.9338 1.58266 12.4493 2.26784C12.6983 2.59883 12.6319 3.06903 12.3009 3.31806C11.9699 3.5671 11.4997 3.50065 11.2507 3.16966C11.1271 3.0054 10.6729 2.75 10 2.75C9.56578 2.75 9.20827 2.86149 8.98328 3.00212C8.87228 3.0715 8.80955 3.13762 8.7783 3.18379C8.74997 3.22566 8.75 3.24623 8.75 3.25013C8.75 3.25404 8.74997 3.27436 8.77831 3.31623C8.80955 3.3624 8.87227 3.42852 8.98327 3.49789C9.20826 3.63851 9.56577 3.75 10 3.75C10.6704 3.75 11.3129 3.91833 11.8117 4.23013C12.3 4.53531 12.75 5.05293 12.75 5.75C12.75 6.44708 12.3 6.9647 11.8117 7.26989C11.3129 7.58168 10.6704 7.75 10 7.75Z" fill="#393D46"/>
</g>
</svg>
