<svg width="32" height="32" viewBox="0 0 32 32" fill="none" xmlns="http://www.w3.org/2000/svg">
<g id="system">
<path id="Vector" fill-rule="evenodd" clip-rule="evenodd" d="M26.8919 11.8261C26.8851 11.851 26.8765 11.8753 26.8665 11.8984C25.8564 15.5541 23.6061 18.8135 20.0459 21.1878C19.7285 21.4011 19.3983 21.6107 19.0511 21.8143C18.8819 21.9141 18.6723 21.9218 18.4956 21.8346C18.4686 21.8211 18.0472 21.6108 17.4073 21.1898C12.2939 17.8611 9.07772 12.0262 10.1218 4.9092C10.1452 4.74936 10.2336 4.6061 10.3663 4.51374C10.4984 4.42138 10.6631 4.38735 10.8218 4.4211C12.9393 4.86689 16.0688 4.19551 18.3297 2.15101C18.5367 1.96429 18.847 1.94914 19.0706 2.11441C20.9087 3.47598 24.1242 4.80725 26.7364 4.43539C27.0543 4.39107 27.3417 4.60381 27.3958 4.91549C27.4 4.93979 27.499 5.52168 27.5322 6.47987C27.5702 7.72743 27.4901 9.66525 26.8919 11.8261ZM18.7398 20.6354C18.9645 20.4975 19.1821 20.3574 19.3943 20.2145C22.6711 18.0299 24.8082 15.0143 25.7567 11.5164C25.7639 11.4901 25.7728 11.465 25.7831 11.4407C26.3241 9.45051 26.3967 7.66824 26.3615 6.51819C26.3495 6.1742 26.3286 5.88311 26.3072 5.65693C23.7109 5.83084 20.9007 4.72533 18.7643 3.32394C16.5411 5.16703 13.735 5.8965 11.2052 5.65379C10.4628 12.0817 13.4736 17.2288 18.0486 20.2099C18.3354 20.3983 18.5725 20.5399 18.7398 20.6354ZM21.6379 9.92956V8.77061C21.6379 7.16705 20.3331 5.8623 18.7296 5.8623C17.1257 5.8623 15.821 7.16705 15.821 8.77061V9.9296C15.3404 9.99061 14.9663 10.3975 14.9663 10.8943V14.844C14.9663 15.3827 15.4047 15.8211 15.9434 15.8211H21.5158C22.0545 15.8211 22.4928 15.3827 22.4928 14.844V10.8943C22.4928 10.3974 22.1185 9.99047 21.6379 9.92956ZM16.9922 8.77061C16.9922 7.81271 17.7717 7.03352 18.7296 7.03352C19.6875 7.03352 20.4667 7.81271 20.4667 8.77061V9.91723H16.9922V8.77061ZM16.1375 14.6498V11.0884H21.3216V14.6498H16.1375ZM18.316 12.7033L19.2193 11.8C19.4481 11.5712 19.8187 11.5712 20.0474 11.8C20.2762 12.0287 20.2762 12.3993 20.0474 12.6281L18.7372 13.9382C18.6231 14.0526 18.473 14.1098 18.3232 14.1098C18.1768 14.1098 18.0301 14.0552 17.9166 13.9457L17.2849 13.3361C17.0522 13.1113 17.0456 12.7407 17.2701 12.508C17.4948 12.2752 17.866 12.2692 18.0982 12.4931L18.316 12.7033ZM4.7175 29.472C4.74752 29.7742 5.00201 29.9998 5.29967 29.9998C5.31883 29.9998 5.33827 29.999 5.358 29.997L7.57862 29.7768C7.99123 29.7359 8.36324 29.5369 8.62602 29.216C8.73372 29.0847 8.81135 28.9371 8.87032 28.783L8.9703 28.7731C9.61938 28.7099 10.281 28.8197 10.885 29.0942L11.5795 29.4096C12.8239 29.9745 14.2737 30.0072 15.5918 29.4316L23.4915 25.3607C24.485 24.9276 24.8689 23.7069 24.3785 22.7403C23.9239 21.8448 22.8845 21.4756 22.0415 21.8845L17.839 23.6094C17.7076 22.7635 16.9682 22.1526 16.1411 22.2337L14.0274 22.4433C13.2688 22.517 12.5062 22.364 11.8197 21.9986C10.9281 21.5234 9.93277 21.3244 8.94542 21.4219L8.17445 21.4983C8.08231 21.3398 7.96521 21.1951 7.8191 21.0753C7.49827 20.8125 7.09309 20.6907 6.69135 20.7302L4.23969 20.9338C3.91743 20.9606 3.67782 21.2434 3.70469 21.566C3.73129 21.8882 4.01837 22.1296 4.33662 22.101L6.79743 21.8965C6.89894 21.8897 6.99816 21.9163 7.07651 21.9812C7.15543 22.0458 7.20432 22.137 7.21433 22.2385L7.8048 28.1947C7.81481 28.2959 7.78479 28.3948 7.72045 28.4735C7.65583 28.5524 7.56432 28.6013 7.4631 28.6113L5.24248 28.8315C4.92051 28.8635 4.68547 29.1503 4.7175 29.472ZM9.06094 22.5874C9.81868 22.5142 10.5824 22.6663 11.269 23.032C12.1608 23.5072 13.1548 23.7071 14.143 23.6087L16.2566 23.3992C16.4702 23.3768 16.6664 23.5647 16.6916 23.8158C16.7164 24.0671 16.5617 24.289 16.347 24.3102L12.51 24.6907C12.188 24.7228 11.9529 25.0096 11.985 25.3313C12.0173 25.6565 12.308 25.8885 12.6255 25.8563L16.4625 25.4757C16.7976 25.4424 17.0951 25.2983 17.3306 25.0844L22.5196 22.9534C22.8184 22.8078 23.1684 22.9448 23.3343 23.2705C23.4329 23.4652 23.4475 23.694 23.374 23.8981C23.3091 24.0788 23.1847 24.2167 22.9894 24.303L15.0897 28.374C14.1161 28.7983 13.0418 28.7868 12.0636 28.3431L11.3691 28.0277C10.5987 27.6781 9.7556 27.536 8.92337 27.6055L8.43205 22.6497L9.06094 22.5874ZM6.08579 27.5869C6.42118 27.5869 6.69306 27.315 6.69306 26.9796C6.69306 26.6442 6.42118 26.3723 6.08579 26.3723C5.7504 26.3723 5.47852 26.6442 5.47852 26.9796C5.47852 27.315 5.7504 27.5869 6.08579 27.5869Z" fill="#BE8656"/>
</g>
</svg>
