<svg width="20" height="20" viewBox="0 0 20 20" fill="none" xmlns="http://www.w3.org/2000/svg">
<g id="unfinished">
<path id="Vector (Stroke)" fill-rule="evenodd" clip-rule="evenodd" d="M3.28711 2.75C3.28711 2.33579 3.6229 2 4.03711 2H17.7508C18.165 2 18.5008 2.33579 18.5008 2.75V7.41667C18.5008 7.83088 18.165 8.16667 17.7508 8.16667H16.2136V11.332H17.7508C18.165 11.332 18.5008 11.6678 18.5008 12.082V16.7487C18.5008 17.1629 18.165 17.4987 17.7508 17.4987H4.03711C3.6229 17.4987 3.28711 17.1629 3.28711 16.7487V12.8346H1.75C1.33579 12.8346 1 12.4988 1 12.0846V7.41797C1 7.00376 1.33579 6.66797 1.75 6.66797H3.28711V2.75ZM2.5 8.16797V11.3346H3.9742C3.99495 11.3329 4.01592 11.332 4.03711 11.332H7.85682V8.16797H2.5ZM9.35682 8.16797V11.332H14.7136V8.16797H9.35682ZM11.6439 6.66667H17.0008V3.5H11.6439V6.66667ZM10.1439 3.5H4.78711V6.66667H10.1439V3.5ZM4.78711 12.8346V15.9987H10.1439V12.8346H4.78711ZM11.6439 12.8346V15.9987H17.0008V12.832H15.5265C15.5058 12.8337 15.4848 12.8346 15.4636 12.8346H11.6439Z" fill="#393D46"/>
</g>
</svg>
