<svg width="20" height="20" viewBox="0 0 20 20" fill="none" xmlns="http://www.w3.org/2000/svg">
<g id="vidnapark">
<g id="Vector">
<path fill-rule="evenodd" clip-rule="evenodd" d="M4.81406 6.09219C3.1423 6.87729 2 8.45981 2 10.2823C2 12.8856 4.33115 15 7.20242 15C8.23224 15 9.19224 14.7283 10 14.2597C10.8078 14.7283 11.7678 15 12.7976 15C15.6688 15 18 12.8856 18 10.2823C18 8.45981 16.8577 6.87729 15.1859 6.09219C15.1976 5.96822 15.2024 5.84338 15.2024 5.71766C15.2024 3.11442 12.8713 1 10 1C7.12873 1 4.79758 3.11442 4.79758 5.71766L4.81406 6.09219ZM5.86618 7.10676C6.19588 6.99246 6.38691 6.68036 6.32 6.36561C6.27539 6.15637 6.25212 5.93921 6.25212 5.71766C6.25212 3.8415 7.93164 2.31876 10 2.31876C12.0684 2.31876 13.7479 3.8415 13.7479 5.71766C13.7479 5.93921 13.7246 6.15637 13.68 6.36561C13.6131 6.68036 13.8041 6.99246 14.1338 7.10676C15.5438 7.59558 16.5455 8.83346 16.5455 10.2823C16.5455 12.1585 14.8659 13.6812 12.7976 13.6812C11.9113 13.6812 11.0967 13.4017 10.4548 12.9348C10.1891 12.7414 9.81091 12.7414 9.54521 12.9348C8.90327 13.4017 8.08873 13.6812 7.20242 13.6812C5.13406 13.6812 3.45455 12.1585 3.45455 10.2823C3.45455 8.83346 4.45624 7.59558 5.86618 7.10676Z" fill="#393D46"/>
<path fill-rule="evenodd" clip-rule="evenodd" d="M13.5793 17.7083H6.4626C6.29892 17.7083 6 17.9883 6 18.3333C6 18.6783 6.29892 18.9583 6.4626 18.9583H13.5793C13.743 18.9583 14 18.6783 14 18.3333C14 17.9883 13.743 17.7083 13.5793 17.7083Z" fill="#393D46"/>
<path fill-rule="evenodd" clip-rule="evenodd" d="M10.6 18.495V13.3354C10.6 13.2167 10.32 13 9.97498 13C9.62998 13 9.34998 13.2167 9.34998 13.3354L9.34998 18.495C9.34998 18.6136 9.62998 18.8 9.97498 18.8C10.32 18.8 10.6 18.6136 10.6 18.495Z" fill="#393D46"/>
</g>
</g>
</svg>
