<svg width="20" height="20" viewBox="0 0 20 20" fill="none" xmlns="http://www.w3.org/2000/svg">
<g id="vidVoDvor-1">
<path id="Vector" fill-rule="evenodd" clip-rule="evenodd" d="M1 18.3077C1 18.69 1.30996 19 1.69231 19H2.69201H4.76032H5.79445C6.1768 19 6.48676 18.69 6.48676 18.3077C6.48676 17.9253 6.1768 17.6154 5.79445 17.6154H5.45262V12.0683C5.45262 11.686 5.14267 11.376 4.76032 11.376H4.41844V3.76061C4.41844 3.00067 5.0345 2.38462 5.79444 2.38462C6.55438 2.38462 7.17044 3.00067 7.17044 3.76061V4.22443C5.98086 4.53164 5.10213 5.61196 5.10213 6.89752C5.10213 7.27987 5.41209 7.58982 5.79444 7.58982H7.17043V7.9317C7.17043 8.31405 7.48039 8.624 7.86274 8.624C8.24509 8.624 8.55505 8.31405 8.55505 7.9317V7.58982H9.93105C10.3134 7.58982 10.6234 7.27987 10.6234 6.89752C10.6234 5.61196 9.74463 4.53164 8.55505 4.22443V3.76061C8.55505 2.23597 7.31908 1 5.79444 1C4.2698 1 3.03382 2.23597 3.03382 3.76061V11.376H2.69201C2.30966 11.376 1.9997 11.686 1.9997 12.0683V17.6154H1.69231C1.30996 17.6154 1 17.9253 1 18.3077ZM7.86275 5.52154L7.86747 5.52153C8.37303 5.52323 8.81437 5.79757 9.05215 6.20521H6.67333C6.91112 5.79757 7.35246 5.52323 7.85802 5.52153L7.86275 5.52154ZM3.38432 12.7606V17.6154H4.06801V12.7606H3.38432ZM16.9317 13.4443V12.7606H18.3077C18.69 12.7606 19 12.4507 19 12.0683V10C19 9.61765 18.69 9.30769 18.3077 9.30769H7.86274C7.48039 9.30769 7.17043 9.61765 7.17043 10V12.0683C7.17043 12.4507 7.48039 12.7606 7.86274 12.7606H9.23874V13.4443H7.86274C7.48039 13.4443 7.17043 13.7543 7.17043 14.1366V16.2049C7.17043 16.5873 7.48039 16.8972 7.86274 16.8972H8.20461V18.3077C8.20461 18.69 8.51457 19 8.89692 19C9.27927 19 9.58923 18.69 9.58923 18.3077V16.8972H16.5812V18.3077C16.5812 18.69 16.8912 19 17.2735 19C17.6559 19 17.9658 18.69 17.9658 18.3077V16.8972H18.3077C18.69 16.8972 19 16.5873 19 16.2049V14.1366C19 13.7543 18.69 13.4443 18.3077 13.4443H16.9317ZM16.2412 14.8289H16.2394H16.2376H9.93281H9.93105H9.92928H8.55505V15.5126H17.6154V14.8289H16.2412ZM15.5471 13.4443H10.6234V12.7606H15.5471V13.4443ZM17.6154 11.376H16.241H16.2394H16.2378H9.93263H9.93105H9.92947H8.55505V10.6923H17.6154V11.376Z" fill="#393D46"/>
</g>
</svg>
