<svg width="20" height="20" viewBox="0 0 20 20" fill="none" xmlns="http://www.w3.org/2000/svg">
<g id="wc2+">
<path id="Vector" fill-rule="evenodd" clip-rule="evenodd" d="M1 18.5C1 18.8252 1.4499 19 1.76137 19H2.98544H4.7505H9.19102H11.0065H15.447H17.212H18.436C18.7475 19 19 18.7364 19 18.4112C19 18.086 18.7475 17.5 18.436 17.5H17.7759V1.58883C17.7759 1.26363 17.5234 1 17.212 1H2.98544C2.67397 1 2.42148 1.26363 2.42148 1.58883V17.5H1.47888C1.16742 17.5 1 18.1748 1 18.5ZM12.2537 17.5H12.0143H11.5354H10.5776H9.61986H8.42265V9.75H12.2537V17.5ZM5.30993 17.5H6.98601V9C6.98601 8.58578 7.30762 8.25 7.70433 8.25H12.972C13.3687 8.25 13.6903 8.58578 13.6903 9V17.5H14.8875H16.3242V7V6.03618V2.5H3.87329V17.5H5.30993ZM5.56658 3.70659C5.78088 3.59472 6.04145 3.68541 6.1486 3.90915L6.62821 4.91068L7.10782 3.90915C7.18131 3.7557 7.33152 3.65877 7.49584 3.65877C7.66015 3.65877 7.81037 3.7557 7.88385 3.90915L8.36346 4.91068L8.84308 3.90915C8.95022 3.68541 9.2108 3.59472 9.4251 3.70659C9.63939 3.81846 9.72625 4.09053 9.6191 4.31428L8.75148 6.12606C8.67799 6.27951 8.52778 6.37644 8.36346 6.37644C8.19915 6.37644 8.04893 6.27951 7.97545 6.12606L7.49584 5.12453L7.01623 6.12606C6.94274 6.27951 6.79253 6.37644 6.62821 6.37644C6.4639 6.37644 6.31368 6.27951 6.2402 6.12606L5.37257 4.31428C5.26543 4.09053 5.35229 3.81846 5.56658 3.70659ZM10.5325 5.01764C10.5325 5.06714 10.5618 5.16931 10.7227 5.28018C10.8801 5.38869 11.1229 5.47056 11.4129 5.47056C11.6462 5.47056 11.8093 5.41759 11.9142 5.35321C12.1207 5.22639 12.3866 5.29838 12.5081 5.51401C12.6295 5.72963 12.5606 6.00724 12.354 6.13405C12.0909 6.29565 11.7691 6.37645 11.4129 6.37645C10.9771 6.37645 10.5629 6.25553 10.2446 6.03618C9.92984 5.81919 9.66491 5.46843 9.66491 5.01764C9.66491 4.56684 9.92983 4.21606 10.2446 3.99906C10.5629 3.7797 10.9771 3.65878 11.4129 3.65878C11.7416 3.65878 12.0551 3.72743 12.3243 3.85276C12.5431 3.95464 12.6414 4.22244 12.5438 4.45091C12.4462 4.67937 12.1897 4.78199 11.9709 4.6801C11.8206 4.61011 11.6285 4.56467 11.4129 4.56467C11.1229 4.56467 10.8801 4.64654 10.7227 4.75505C10.5618 4.86592 10.5325 4.9681 10.5325 5.01764ZM14.4369 3.65878C14.6764 3.65878 14.8707 3.86157 14.8707 4.11173V4.56467H15.3045C15.5441 4.56467 15.7383 4.76746 15.7383 5.01762C15.7383 5.26777 15.5441 5.47056 15.3045 5.47056H14.8707V5.9235C14.8707 6.17366 14.6764 6.37645 14.4369 6.37645C14.1973 6.37645 14.003 6.17366 14.003 5.9235V5.47056H13.5692C13.3296 5.47056 13.1354 5.26777 13.1354 5.01762C13.1354 4.76746 13.3296 4.56467 13.5692 4.56467H14.003V4.11173C14.003 3.86157 14.1973 3.65878 14.4369 3.65878ZM11.7748 12.941C11.7748 12.6648 11.5604 12.441 11.2959 12.441C11.0315 12.441 10.8171 12.6648 10.8171 12.941V14.059C10.8171 14.3352 11.0315 14.559 11.2959 14.559C11.5604 14.559 11.7748 14.3352 11.7748 14.059V12.941Z" fill="#393D46"/>
</g>
</svg>
