<svg width="20" height="20" viewBox="0 0 20 20" fill="none" xmlns="http://www.w3.org/2000/svg">
<g id="woWhitebox">
<path id="Vector (Stroke)" fill-rule="evenodd" clip-rule="evenodd" d="M3.25 3C3.25 2.58579 3.58579 2.25 4 2.25H16C16.4142 2.25 16.75 2.58579 16.75 3V7C16.75 7.41421 16.4142 7.75 16 7.75H4C3.58579 7.75 3.25 7.41421 3.25 7V3ZM4.75 3.75V6.25H15.25V3.75H4.75ZM2 4.25C2.41421 4.25 2.75 4.58579 2.75 5V9.25H10C10.4142 9.25 10.75 9.58579 10.75 10V18C10.75 18.4142 10.4142 18.75 10 18.75C9.58579 18.75 9.25 18.4142 9.25 18V10.75H2C1.58579 10.75 1.25 10.4142 1.25 10V5C1.25 4.58579 1.58579 4.25 2 4.25Z" fill="#393D46"/>
</g>
</svg>
